<svg version="1.1" xmlns="http://www.w3.org/2000/svg" xmlns:xlink="http://www.w3.org/1999/xlink" width="39.16667" height="60.375" viewBox="0,0,39.16667,60.375"><g transform="translate(-193.25,-146.54169)"><g data-paper-data="{&quot;isPaintingLayer&quot;:true}" fill-rule="nonzero" stroke-linejoin="miter" stroke-miterlimit="10" stroke-dasharray="" stroke-dashoffset="0" style="mix-blend-mode: normal"><path d="M198.25,155.25c5.04736,-5.68745 16.39478,-7.73507 22.32372,-3.26682c0.70027,0.52774 2.52527,0.12882 3.42628,0.57932c2.36856,1.18428 6.77229,7.48854 5.60417,10.10417c-1.1283,2.52645 -3.19242,0.07511 -4.35814,0.11489c-0.2181,0.00744 -1.36362,2.41961 -2.52294,2.48402c-1.05673,0.05871 -1.32727,-0.47437 -2.12796,-0.78728c-0.93884,-0.3669 -3.40856,0.31067 -4.48893,0.27762c-2.9496,-0.09023 -5.76615,3.01138 -9.1687,2.16074c-1.09441,-0.2736 -2.14808,-2.07228 -2.65587,-2.20682c-1.18596,-0.31421 -2.50889,-1.73958 -3.52644,-1.05415c-0.23678,0.15949 -0.47485,0.51142 -0.75313,0.8197c-0.37082,0.41079 -0.81304,0.74408 -1.41872,0.44127c-1.0652,0 -1.9748,-0.66619 -2.33489,-1.60465c-0.16002,-0.25268 -0.23113,-0.52858 -0.16426,-0.82952c-0.00057,-0.02188 -0.00085,-0.04382 -0.00085,-0.06584c0,-0.34957 0.07175,-0.68238 0.20132,-0.98451c0.36915,-2.1631 0.37674,-4.39208 1.96535,-6.18216z" fill="#00ff2d" stroke="none" stroke-width="0.5" stroke-linecap="butt"/><path d="M195.91667,205.4167v-43.5h34.5v43.5z" fill="#00ff2d" stroke="none" stroke-width="0" stroke-linecap="butt"/><g fill="none" stroke="#000000" stroke-width="3"><path d="M195.00788,169.56032c-0.16956,-0.99476 -0.25788,-2.01721 -0.25788,-3.06029c0,-9.98715 8.09618,-18.08334 18.08334,-18.08334c9.98715,0 18.08333,8.09619 18.08333,18.08334c0,0.23873 -0.00462,0.47638 -0.01379,0.71287" stroke-linecap="butt"/><path d="M230.91667,164.23027v3.04337v6.14933v31.99373h-36v-41.83333" stroke-linecap="round"/></g><path d="M202.25,164.75c0,-2.02504 1.64162,-3.66667 3.66667,-3.66667c2.02504,0 3.66667,1.64162 3.66667,3.66667c0,2.02504 -1.64162,3.66667 -3.66667,3.66667c-2.02504,0 -3.66667,-1.64162 -3.66667,-3.66667z" fill="#000000" stroke="none" stroke-width="0" stroke-linecap="butt"/><path d="M215.75,164.25c0,-2.02505 1.64162,-3.66666 3.66666,-3.66666c2.02505,0 3.66667,1.64162 3.66667,3.66666c0,2.02505 -1.64163,3.66667 -3.66667,3.66667c-2.02505,0 -3.66666,-1.64163 -3.66666,-3.66667z" fill="#000000" stroke="none" stroke-width="0" stroke-linecap="butt"/><path d="M205.55952,163.78573c0,-0.8087 0.65558,-1.46429 1.46429,-1.46429c0.8087,0 1.46429,0.65558 1.46429,1.46429c0,0.8087 -0.65558,1.46429 -1.46429,1.46429c-0.8087,0 -1.46429,-0.65558 -1.46429,-1.46429z" fill="#ffffff" stroke="none" stroke-width="0" stroke-linecap="butt"/><path d="M204.41667,166.14288c0,-0.57201 0.46371,-1.03571 1.03571,-1.03571c0.57201,0 1.03571,0.46371 1.03571,1.03571c0,0.57201 -0.46371,1.03571 -1.03571,1.03571c-0.57201,0 -1.03571,-0.46371 -1.03571,-1.03571z" fill="#ffffff" stroke="none" stroke-width="0" stroke-linecap="butt"/><path d="M218.45238,165.10716c-0.80871,0 -1.46428,-0.65558 -1.46428,-1.46428c0,-0.80871 0.65558,-1.46429 1.46428,-1.46429c0.80871,0 1.46428,0.65558 1.46428,1.46429c0,0.80871 -0.65558,1.46428 -1.46428,1.46428z" data-paper-data="{&quot;index&quot;:null}" fill="#ffffff" stroke="none" stroke-width="0" stroke-linecap="butt"/><path d="M220.02381,167.03573c-0.57201,0 -1.03571,-0.46371 -1.03571,-1.03572c0,-0.57201 0.4637,-1.03571 1.03571,-1.03571c0.57201,0 1.03572,0.4637 1.03572,1.03571c0,0.57201 -0.46371,1.03572 -1.03572,1.03572z" data-paper-data="{&quot;index&quot;:null}" fill="#ffffff" stroke="none" stroke-width="0" stroke-linecap="butt"/><path d="M208.63095,174.03574c0,-2.24859 1.82284,-4.07143 4.07143,-4.07143c2.24859,0 4.07143,1.82284 4.07143,4.07143c0,2.24859 -1.82284,4.07143 -4.07143,4.07143c-2.24859,0 -4.07143,-1.82284 -4.07143,-4.07143z" fill="none" stroke="#000000" stroke-width="2" stroke-linecap="butt"/><path d="M195.0625,203.68751v-16.75h35v16.75z" fill="#5500ff" stroke="none" stroke-width="NaN" stroke-linecap="butt"/><path d="M194.6875,187.06251v-16.75h35v16.75z" fill="#945fff" stroke="none" stroke-width="NaN" stroke-linecap="butt"/><path d="M198.8125,171.06251v-15.72143h30.5v15.72143z" fill="#16ff00" stroke="none" stroke-width="NaN" stroke-linecap="butt"/><path d="M195.6875,171.43751v-9.75089h20.375v9.75089z" fill="#16ff00" stroke="none" stroke-width="NaN" stroke-linecap="butt"/><path d="M199.5625,160.5625c0,0 0.05913,-4.84796 0.38184,-6.52277c0.20215,-1.0491 1.36816,-2.55938 1.36816,-2.55938c0,0 7.12203,-2.50607 11.6229,-2.82272c3.57634,-0.2516 10.2521,2.57272 10.2521,2.57272c0,0 2.34144,1.856 2.7919,3.10158c0.61966,1.71341 0.5831,6.23057 0.5831,6.23057z" fill="#feff00" stroke="none" stroke-width="NaN" stroke-linecap="butt"/><path d="M196.5625,164.5625v-9.33214h30.625v9.33214z" fill="#16ff00" stroke="none" stroke-width="NaN" stroke-linecap="butt"/><g fill="none" stroke="#000000" stroke-width="3"><path d="M195.00788,169.18533c-0.16956,-0.99476 -0.25788,-2.01721 -0.25788,-3.06029c0,-9.98715 8.09618,-18.08334 18.08334,-18.08334c9.98715,0 18.08333,8.09619 18.08333,18.08334c0,0.23873 -0.00462,0.47638 -0.01379,0.71287" stroke-linecap="butt"/><path d="M230.91667,163.85527v3.04337v6.14933v31.99373h-36v-41.83333" stroke-linecap="round"/></g><path d="M202.25,164.75c0,-2.02504 1.64162,-3.66667 3.66667,-3.66667c2.02504,0 3.66667,1.64162 3.66667,3.66667c0,2.02504 -1.64162,3.66667 -3.66667,3.66667c-2.02504,0 -3.66667,-1.64162 -3.66667,-3.66667z" fill="#000000" stroke="none" stroke-width="0" stroke-linecap="butt"/><path d="M215.75,164.25c0,-2.02505 1.64162,-3.66666 3.66666,-3.66666c2.02505,0 3.66667,1.64162 3.66667,3.66666c0,2.02505 -1.64163,3.66667 -3.66667,3.66667c-2.02505,0 -3.66666,-1.64163 -3.66666,-3.66667z" fill="#000000" stroke="none" stroke-width="0" stroke-linecap="butt"/><path d="M205.55952,163.78572c0,-0.8087 0.65558,-1.46429 1.46429,-1.46429c0.8087,0 1.46429,0.65558 1.46429,1.46429c0,0.8087 -0.65558,1.46429 -1.46429,1.46429c-0.8087,0 -1.46429,-0.65558 -1.46429,-1.46429z" fill="#ffffff" stroke="none" stroke-width="0" stroke-linecap="butt"/><path d="M204.41667,166.14288c0,-0.57201 0.46371,-1.03571 1.03571,-1.03571c0.57201,0 1.03571,0.46371 1.03571,1.03571c0,0.57201 -0.46371,1.03571 -1.03571,1.03571c-0.57201,0 -1.03571,-0.46371 -1.03571,-1.03571z" fill="#ffffff" stroke="none" stroke-width="0" stroke-linecap="butt"/><path d="M218.45238,165.10715c-0.80871,0 -1.46428,-0.65558 -1.46428,-1.46428c0,-0.80871 0.65558,-1.46429 1.46428,-1.46429c0.80871,0 1.46428,0.65558 1.46428,1.46429c0,0.80871 -0.65558,1.46428 -1.46428,1.46428z" data-paper-data="{&quot;index&quot;:null}" fill="#ffffff" stroke="none" stroke-width="0" stroke-linecap="butt"/><path d="M220.02381,167.03572c-0.57201,0 -1.03571,-0.46371 -1.03571,-1.03572c0,-0.57201 0.4637,-1.03571 1.03571,-1.03571c0.57201,0 1.03572,0.4637 1.03572,1.03571c0,0.57201 -0.46371,1.03572 -1.03572,1.03572z" data-paper-data="{&quot;index&quot;:null}" fill="#ffffff" stroke="none" stroke-width="0" stroke-linecap="butt"/><path d="M222.22068,173.04846c-0.33822,-0.23699 -1.01691,-0.87259 -0.49982,-1.90678c0.67082,-1.34164 2.01246,-0.67082 2.01246,-0.67082l0.87485,0.71083c3.03877,5.35933 1.3009,11.33956 -3.27865,15.08675c-6.01567,3.9707 -19.79632,2.62357 -22.20521,-5.52981c-0.85276,-2.88632 0.16028,-6.24543 1.00453,-8.99227c0,0 0.44113,-1.43367 1.8748,-0.99254c1.43367,0.44113 0.99254,1.8748 0.99254,1.8748c-0.66362,2.15429 -1.64743,4.97329 -0.99547,7.25773c1.71952,6.02513 13.30576,6.83378 17.54479,3.97019c3.22595,-2.63918 4.76073,-6.96302 2.6752,-10.8081z" fill="#000000" stroke="none" stroke-width="0.5" stroke-linecap="butt"/></g></g></svg>