<svg version="1.1" xmlns="http://www.w3.org/2000/svg" xmlns:xlink="http://www.w3.org/1999/xlink" width="67.56415" height="66.75834" viewBox="0,0,67.56415,66.75834"><g transform="translate(-179.02332,-161.425)"><g data-paper-data="{&quot;isPaintingLayer&quot;:true}" fill-rule="nonzero" stroke-linecap="butt" stroke-linejoin="miter" stroke-miterlimit="10" stroke-dasharray="" stroke-dashoffset="0" style="mix-blend-mode: normal"><path d="M181.10001,193.7c0,-16.78946 13.61055,-30.4 30.4,-30.4c16.78946,0 30.4,13.61054 30.4,30.4c0,8.59719 5.23126,22.56086 -0.50564,28.09041c-5.46669,5.26911 -22.03543,5.39293 -30.2277,5.39293c-7.39455,0 -21.90581,0.72653 -27.17588,-3.66253c-6.69572,-5.57638 -2.89078,-20.4259 -2.89078,-29.8208z" fill="#9966ff" stroke="#000000" stroke-width="2"/><path d="M189.41668,191c0,-3.92122 3.17878,-7.1 7.1,-7.1c3.92122,0 7.1,3.17878 7.1,7.1c0,3.92122 -3.17878,7.1 -7.1,7.1c-3.92122,0 -7.1,-3.17878 -7.1,-7.1z" fill="#000000" stroke="#000000" stroke-width="2"/><path d="M195.41668,189.5c0,-2.03425 1.64908,-3.68333 3.68333,-3.68333c2.03425,0 3.68333,1.64909 3.68333,3.68333c0,2.03425 -1.64908,3.68333 -3.68333,3.68333c-2.03425,0 -3.68333,-1.64909 -3.68333,-3.68333z" fill="#ffffff" stroke="#000000" stroke-width="0"/><path d="M191.50001,194.58334c0,-1.25185 1.01483,-2.26667 2.26667,-2.26667c1.25185,0 2.26666,1.01483 2.26666,2.26667c0,1.25185 -1.01482,2.26666 -2.26666,2.26666c-1.25185,0 -2.26667,-1.01482 -2.26667,-2.26666z" fill="#ffffff" stroke="#000000" stroke-width="0"/><path d="M221.43334,198.01667c-3.92122,0 -7.1,-3.17878 -7.1,-7.1c0,-3.92122 3.17878,-7.1 7.1,-7.1c3.92122,0 7.1,3.17878 7.1,7.1c0,3.92122 -3.17878,7.1 -7.1,7.1z" data-paper-data="{&quot;index&quot;:null}" fill="#000000" stroke="#000000" stroke-width="2"/><path d="M218.85001,193.1c-2.03425,0 -3.68333,-1.64908 -3.68333,-3.68333c0,-2.03425 1.64908,-3.68333 3.68333,-3.68333c2.03425,0 3.68333,1.64908 3.68333,3.68333c0,2.03425 -1.64908,3.68333 -3.68333,3.68333z" data-paper-data="{&quot;index&quot;:null}" fill="#ffffff" stroke="#000000" stroke-width="0"/><path d="M224.18334,196.76667c-1.25185,0 -2.26666,-1.01482 -2.26666,-2.26666c0,-1.25185 1.01482,-2.26667 2.26666,-2.26667c1.25185,0 2.26667,1.01483 2.26667,2.26667c0,1.25185 -1.01483,2.26666 -2.26667,2.26666z" data-paper-data="{&quot;index&quot;:null}" fill="#ffffff" stroke="#000000" stroke-width="0"/><path d="M240.33971,221.3674c-0.42305,3.09392 -4.03836,3.12438 -6.62441,3.62572c-6.38578,1.23798 -14.40323,2.369 -20.5679,1.29854c-1.66157,-0.28852 -9.70884,0.843 -10.86975,-2.17538c-0.84612,-2.19992 -0.42306,-3.1518 1.77686,-3.99792c1.30979,-0.50376 3.13537,1.36205 4.71421,1.08997c0.88333,-0.15222 2.34359,-2.31807 3.59995,-2.75869c4.27412,-1.49898 8.89471,-2.00573 13.01478,-4.11852c1.84655,-0.94692 11.44585,-10.54119 11.89242,-12.59757c0.34806,-1.60278 -2.70212,-5.3045 1.47605,-5.37413c6.28835,-0.1048 6.91366,10.02075 6.34906,14.25979c-0.16118,1.21018 -0.6772,4.84458 -1.55134,5.34409c-0.02258,0.05692 -0.0472,0.1128 -0.07376,0.16757c0.12063,1.7491 -2.94865,3.86512 -3.13617,5.23652z" fill="#ccb2ff" stroke="none" stroke-width="0.5"/><path d="M188.81799,226.0512c-0.86584,-0.45858 -1.79999,-2.28139 -2.38581,-2.47242c-1.86703,-0.60882 -3.96001,-0.46517 -3.25231,-3.43885c1.07582,-4.52044 9.88338,-6.1957 12.83374,-8.65774c4.16601,-3.47648 9.688,-5.18393 13.627,-8.75834c4.69055,-4.25639 9.32735,-9.55521 13.67018,-14.27017c3.44337,-3.73843 6.39445,-10.445 10.625,-12.98333c1.86551,-1.1193 4.23069,0.69206 3.82823,2.75922c-0.01535,0.07888 -0.40321,0.57155 -0.23024,0.63533c1.5773,0.5816 4.40608,-0.36053 3.67127,2.89232c-1.65113,7.30915 -6.20782,18.84973 -13.11122,22.69061c-1.15792,1.68552 -3.70936,1.87275 -5.24735,3.09122c-5.84596,4.63145 -12.86752,8.30562 -18.12767,13.38203c-2.56318,2.47365 -5.3254,3.44038 -8.70658,4.70258c-0.30394,0.11346 -1.38988,0.55254 -2.35281,0.69246c-1.60274,0.50305 -3.31949,0.54111 -4.84142,-0.26495z" fill="#b3bdff" stroke="none" stroke-width="0.5"/><path d="M183.05321,192.57992c2.34883,-2.49262 4.92704,-2.51215 7.52967,-4.29833c3.33462,-2.28855 8.26791,-5.32562 11.10955,-8.0988c4.57856,-4.46825 9.20179,-9.34442 14.06095,-13.39372c0.88428,-0.7369 2.17079,0.00423 2.59458,-0.35546c0.61384,-0.52101 1.06748,-1.74456 2.02246,-1.79762c0.55426,-0.03079 2.10573,0.17549 2.43068,0.66291c0.41412,0.62118 0.68425,1.55314 0.61141,2.24183c-0.01951,0.18446 -0.29861,0.59576 -0.12072,0.54322c1.02779,-0.30355 4.12702,-1.88942 5.69155,-0.90478c4.64686,2.92451 -2.62333,11.07009 -5.18827,13.03967c-9.66833,7.42421 -18.75125,15.47096 -29.00325,22.14821c-2.46929,1.60828 -7.39627,6.24457 -10.60235,7.85638c-0.42702,0.34004 -0.96785,0.54323 -1.55614,0.54323c-1.38071,0 -2.5,-1.11929 -2.5,-2.5c0,-0.5403 0.1714,-1.04056 0.46279,-1.44939c-0.00112,-0.12078 -0.40878,-0.35567 -0.87893,-0.67091c0.30876,-1.96429 0.41139,-3.75079 0.26984,-5.37777c1.06814,-2.61143 0.98876,-5.98408 3.06618,-8.18867z" fill="#ffdab3" stroke="none" stroke-width="0.5"/><path d="M189.10708,173.62111c2.84928,-3.26358 4.25383,-5.83095 8.70789,-7.37401c1.03621,-0.35898 2.52002,0.20728 3.20266,-0.03292c3.01283,-1.06008 5.83817,-4.17552 8.55177,-1.19054c2.33512,2.56862 -4.26237,4.71504 -5.59388,5.52718c-4.40072,2.68419 -8.77978,5.68872 -12.92233,8.80916c-2.17087,1.63524 -2.72478,5.69868 -4.76986,7.06919c-0.69061,0.46282 -2.10851,0.38635 -2.8,0c-2.73301,-1.52696 -0.26567,-4.34633 0.60909,-6.09585c-0.22792,-0.37697 -0.35909,-0.81899 -0.35909,-1.29165c0,-1.07324 0.67628,-1.98851 1.62593,-2.34294c1.16709,-1.03754 2.64669,-1.81638 3.74781,-3.07762z" fill="#bcffb3" stroke="none" stroke-width="0.5"/><path d="M222.26059,170.74475c-0.80686,0.40344 -2.45386,-0.90993 -3.54808,-1.36579c-0.41198,0.29894 -0.91874,0.47521 -1.46668,0.47521c-0.22389,0 -0.44091,-0.02943 -0.64739,-0.08463c-0.84032,0.01726 -1.73074,0.49107 -2.61049,1.16134c-0.02425,0.1023 -0.04619,0.20876 -0.06557,0.31975c-0.08183,0.46858 0.16105,1.84467 0.00726,2.61359c-0.27661,1.38306 -2.2742,1.66899 -3.40631,2.51024c-5.05642,3.75734 -5.70264,5.35802 -12.20547,8.54472c-0.98064,0.48056 -1.88066,1.2038 -2.95013,1.42477c-0.3191,0.06593 -0.67265,-0.15075 -0.99941,-0.24947c-1.3209,1.60749 -1.91607,3.84427 -3.90206,5.15653c-0.91008,0.60135 -1.93668,0.89385 -2.96431,0.92526c-0.08265,0.2031 -0.18057,0.39162 -0.30085,0.55817c-0.99877,1.38291 -2.70426,1.2026 -4.10811,1.10284c-1.5034,-0.10683 -1.53717,-2.14274 -0.96782,-4.40788c-0.09201,-0.14537 -0.17698,-0.29553 -0.25433,-0.45023c-0.41246,-0.82493 0.31287,-1.58025 1.12751,-2.16331c0.81741,-1.97935 1.85565,-3.61318 2.47555,-3.64762c0.19607,-0.12729 0.4111,-0.22783 0.63993,-0.29648c0.06903,-0.09925 0.13608,-0.18177 0.20033,-0.24244c1.10645,-1.04504 4.5455,-3.83837 7.53451,-5.60907c0.23886,-0.2891 0.41964,-0.50849 0.52598,-0.62583c2.59864,-2.86736 5.42915,-5.02729 8.79064,-5.68093c0.38227,-0.07433 2.69099,-2.16371 4.23019,-3.51023c-0.011,-0.56857 0.23981,-1.22255 0.73215,-2.04311c0.10965,-0.18274 0.30264,-0.3361 0.55964,-0.46437c0.1662,-0.4063 0.43457,-0.76716 0.80858,-1.02912c1.79077,-1.25424 5.96426,-1.10211 8.18952,0.14044c0.40624,-0.2854 0.9013,-0.45294 1.43548,-0.45294c0.71368,0 1.35752,0.29906 1.81304,0.77868c2.80715,1.563 5.286,4.63226 1.32672,6.6119z" fill="#f8fff7" stroke="none" stroke-width="0.5"/><path d="M192.47807,202.0864c3.95088,-3.95088 7.0473,-6.20846 11.92558,-9.09139c3.1677,-1.87203 8.41815,-3.28123 10.99759,-6.13922c3.15635,-3.49721 6.87299,-6.44616 10.38899,-9.58157c1.99203,-1.77639 2.65242,-8.03567 4.70387,-8.54853c4.76544,-1.19136 6.68047,3.64168 5.10121,7.60783c-3.00705,7.5519 -8.76989,12.27666 -13.97991,18.45594c-0.62294,0.73883 0.41905,1.79249 -0.61957,2.8147c-4.04966,3.98566 -10.50423,5.1488 -15.26941,8.10831c-4.64066,2.88216 -6.7217,8.54531 -12.21104,10.39531c-1.67136,0.56328 -10.8171,3.46727 -12.08747,1.56173c-3.39768,-5.09652 3.99269,-7.69809 6.90213,-10.3443c1.5973,-1.4528 2.49615,-3.48138 3.98968,-4.97491z" fill="#fff5eb" stroke="none" stroke-width="0.5"/><path d="M205.99504,217.99762c3.98732,-2.51452 8.69876,-8.35627 13.44409,-10.22564c0.70068,-0.27603 1.9105,1.04787 2.43112,0.90702c1.89637,-0.51306 4.00504,-4.05473 5.0063,-5.33533c1.12202,-1.43503 1.97198,-2.68684 3.58138,-3.54519c0.59291,-0.31622 1.47597,0.45888 2.01506,0.05774c2.67,-1.9867 5.09944,-14.91365 10.52285,-11.81456c0.47634,0.27219 0.86317,1.5752 1.14203,1.75566c0.87624,0.56702 1.98941,1.07165 2.37354,2.04209c0.68343,1.72656 -3.43629,6.6446 -4.46789,7.88898c-3.23338,3.9003 -6.14715,8.54797 -9.95928,11.94628c-2.5731,2.29379 -5.78927,2.57683 -8.38858,3.83813c-5.42213,2.63105 -9.73807,4.52596 -15.10156,7.03048c-0.91795,0.42864 -5.92088,3.77502 -8.52592,4.88105c-0.20589,0.11255 -0.42937,0.19696 -0.66524,0.24809c-0.17147,0.03717 -0.3495,0.05675 -0.53211,0.05675c-1.38071,0 -2.5,-1.11929 -2.5,-2.5c0,-1.00001 0.58715,-1.86289 1.43552,-2.2627c2.22063,-2.27138 6.12853,-3.66965 8.18869,-4.96884z" fill="#e5e8ff" stroke="none" stroke-width="0.5"/><path d="M181.35001,192.825c0,-16.78946 13.61055,-30.4 30.4,-30.4c16.78946,0 30.4,13.61054 30.4,30.4c0,8.59719 5.23126,22.56086 -0.50564,28.09041c-5.46669,5.26911 -22.03543,5.39293 -30.2277,5.39293c-7.39455,0 -21.90581,0.72653 -27.17588,-3.66253c-6.69572,-5.57638 -2.89078,-20.4259 -2.89078,-29.8208z" fill="none" stroke="#000000" stroke-width="2"/><path d="M190.79167,188.875c0,-3.92122 3.17878,-7.1 7.1,-7.1c3.92122,0 7.1,3.17878 7.1,7.1c0,3.92122 -3.17878,7.1 -7.1,7.1c-3.92122,0 -7.1,-3.17878 -7.1,-7.1z" fill="#000000" stroke="#000000" stroke-width="2"/><path d="M196.79167,187.375c0,-2.03425 1.64908,-3.68333 3.68333,-3.68333c2.03425,0 3.68333,1.64909 3.68333,3.68333c0,2.03425 -1.64908,3.68333 -3.68333,3.68333c-2.03425,0 -3.68333,-1.64909 -3.68333,-3.68333z" fill="#ffffff" stroke="#000000" stroke-width="0"/><path d="M192.875,192.45834c0,-1.25185 1.01483,-2.26667 2.26667,-2.26667c1.25185,0 2.26666,1.01483 2.26666,2.26667c0,1.25185 -1.01482,2.26666 -2.26666,2.26666c-1.25185,0 -2.26667,-1.01482 -2.26667,-2.26666z" fill="#ffffff" stroke="#000000" stroke-width="0"/><path d="M222.80833,195.89167c-3.92122,0 -7.1,-3.17878 -7.1,-7.1c0,-3.92122 3.17878,-7.1 7.1,-7.1c3.92122,0 7.1,3.17878 7.1,7.1c0,3.92122 -3.17878,7.1 -7.1,7.1z" data-paper-data="{&quot;index&quot;:null}" fill="#000000" stroke="#000000" stroke-width="2"/><path d="M220.225,190.975c-2.03425,0 -3.68333,-1.64908 -3.68333,-3.68333c0,-2.03425 1.64908,-3.68333 3.68333,-3.68333c2.03425,0 3.68333,1.64908 3.68333,3.68333c0,2.03425 -1.64908,3.68333 -3.68333,3.68333z" data-paper-data="{&quot;index&quot;:null}" fill="#ffffff" stroke="#000000" stroke-width="0"/><path d="M225.43333,194.64167c-1.25185,0 -2.26666,-1.01482 -2.26666,-2.26666c0,-1.25185 1.01482,-2.26667 2.26666,-2.26667c1.25185,0 2.26667,1.01483 2.26667,2.26667c0,1.25185 -1.01483,2.26666 -2.26667,2.26666z" data-paper-data="{&quot;index&quot;:null}" fill="#ffffff" stroke="#000000" stroke-width="0"/></g></g></svg>