<svg version="1.1" xmlns="http://www.w3.org/2000/svg" xmlns:xlink="http://www.w3.org/1999/xlink" width="57.70238" height="83.60045" viewBox="0,0,57.70238,83.60045"><g transform="translate(-211.1426,-138.69978)"><g data-paper-data="{&quot;isPaintingLayer&quot;:true}" fill-rule="nonzero" stroke-linejoin="miter" stroke-miterlimit="10" stroke-dasharray="" stroke-dashoffset="0" style="mix-blend-mode: normal"><path d="M212.15918,185.54755c0,-15.37606 12.46476,-27.84081 27.84081,-27.84081c15.37606,0 27.84081,12.46476 27.84081,27.84081c0,15.37606 -12.46476,27.84081 -27.84081,27.84081c-15.37606,0 -27.84081,-12.46476 -27.84081,-27.84081z" fill="#7d66ff" stroke="#000000" stroke-width="2" stroke-linecap="butt"/><path d="M212.75631,221.30023l-0.59712,-35.52876l55.68163,-1.19424l-0.14928,36.723z" fill="#6aff66" stroke="#000000" stroke-width="2" stroke-linecap="butt"/><path d="M213.79104,206.45022v-10.85677h52.5196v10.85677z" fill="#ffea66" stroke="none" stroke-width="0" stroke-linecap="butt"/><path d="M265.00449,184.4139l-48.36688,1.13804" fill="#ff4040" stroke="#66ebff" stroke-width="2.5" stroke-linecap="round"/><path d="M213.50271,185.77147c0,-2.06113 1.67088,-3.73201 3.73201,-3.73201c2.06113,0 3.73201,1.67088 3.73201,3.73201c0,2.06113 -1.67088,3.73201 -3.73201,3.73201c-2.06113,0 -3.73201,-1.67088 -3.73201,-3.73201z" fill="#6aff66" stroke="none" stroke-width="0.5" stroke-linecap="butt"/><path d="M258.58543,186.51787c0,-2.06113 1.67088,-3.73201 3.73201,-3.73201c2.06113,0 3.73201,1.67088 3.73201,3.73201c0,2.06113 -1.67088,3.73201 -3.73201,3.73201c-2.06113,0 -3.73201,-1.67088 -3.73201,-3.73201z" fill="#ffea66" stroke="none" stroke-width="0.5" stroke-linecap="butt"/><path d="M214.06247,220.15688v-7.59974h52.11247v7.59974z" fill="#ff6666" stroke="none" stroke-width="0" stroke-linecap="butt"/><path d="M217.52306,171.70857c0.40283,-0.70496 0.91178,-1.41452 1.51149,-2.11831c6.92983,-8.13235 25.98015,-15.49388 33.50158,-6.09212c1.62386,2.02981 8.15652,0.60263 8.15652,5.50676c0,4.03822 -8.71288,3.57069 -11.07428,3.58576c-4.19811,0.02681 -8.40719,0.26414 -12.61729,0.40713c-1.95523,0.06641 -17.33699,2.45756 -18.37528,0.64055z" fill="#e366ff" stroke="none" stroke-width="0.5" stroke-linecap="butt"/><path d="M215.47093,185.21513l48.36688,-1.13804" fill="none" stroke="#009cff" stroke-width="4.5" stroke-linecap="round"/><path d="M222.31022,181.03278c0,-3.67929 2.98265,-6.66193 6.66193,-6.66193c3.67929,0 6.66193,2.98265 6.66193,6.66193c0,3.67929 -2.98265,6.66193 -6.66193,6.66193c-3.67929,0 -6.66193,-2.98264 -6.66193,-6.66193z" fill="#000000" stroke="#000000" stroke-width="NaN" stroke-linecap="butt"/><path d="M226.61898,178.34787c0,-1.96652 1.59417,-3.56068 3.56068,-3.56068c1.96652,0 3.56068,1.59417 3.56068,3.56068c0,1.96652 -1.59417,3.56068 -3.56068,3.56068c-1.96652,0 -3.56068,-1.59417 -3.56068,-3.56068z" fill="#ffffff" stroke="none" stroke-width="0" stroke-linecap="butt"/><path d="M252.37131,175.06003c3.67927,0 6.66193,2.98265 6.66193,6.66193c0,3.67927 -2.98265,6.66193 -6.66193,6.66193c-3.67927,0 -6.66193,-2.98265 -6.66193,-6.66193c0,-3.67927 2.98265,-6.66193 6.66193,-6.66193z" data-paper-data="{&quot;index&quot;:null}" fill="#000000" stroke="#000000" stroke-width="NaN" stroke-linecap="butt"/><path d="M250.18266,175.52807c1.9665,0 3.56068,1.59417 3.56068,3.56068c0,1.9665 -1.59417,3.56068 -3.56068,3.56068c-1.96652,0 -3.56068,-1.59417 -3.56068,-3.56068c0,-1.96652 1.59417,-3.56068 3.56068,-3.56068z" data-paper-data="{&quot;index&quot;:null}" fill="#ffffff" stroke="none" stroke-width="0" stroke-linecap="butt"/><path d="M243.50805,183.53226c1.1196,0 1.1196,1.1196 1.1196,1.1196v0.29856c-0.0761,3.30952 -4.05404,5.7636 -7.07034,3.39015c-0.05291,-0.04162 -1.45102,-2.85209 -1.46973,-2.88946c0,0 -0.5007,-1.0014 0.5007,-1.50211c0.33755,-0.16878 0.61822,-0.16688 0.84199,-0.0902c1.75184,0 3.50367,0 5.25551,0c0.16524,-0.18367 0.42231,-0.32655 0.82228,-0.32655zM238.16105,184.60522c0.0001,0.00025 0.00021,0.00051 0.00031,0.00076c0.00022,-0.00025 0.00042,-0.00051 0.00064,-0.00076c-0.00031,0 -0.00064,0 -0.00096,0z" fill="#000000" stroke="none" stroke-width="0.5" stroke-linecap="butt"/><path d="M222.88696,184.22579c0,-1.14206 0.92582,-2.06788 2.06788,-2.06788c1.14206,0 2.06788,0.92582 2.06788,2.06788c0,1.14206 -0.92582,2.06788 -2.06788,2.06788c-1.14206,0 -2.06788,-0.92581 -2.06788,-2.06788z" fill="#ffffff" stroke="none" stroke-width="0" stroke-linecap="butt"/><path d="M255.9962,187.13337c-1.14206,0 -2.06788,-0.92581 -2.06788,-2.06788c0,-1.14206 0.92582,-2.06788 2.06788,-2.06788c1.14206,0 2.06788,0.92582 2.06788,2.06788c0,1.14206 -0.92581,2.06788 -2.06788,2.06788z" data-paper-data="{&quot;index&quot;:null}" fill="#ffffff" stroke="none" stroke-width="0" stroke-linecap="butt"/><path d="M237.09954,187.86573c-0.11321,-0.01452 -0.28501,-0.07742 -0.31556,-0.32189c-0.04629,-0.37032 0.32403,-0.41661 0.32403,-0.41661c2.27372,-0.28213 7.28126,-1.76305 6.1757,1.53944c-1.06633,1.97032 -5.13912,0.69062 -5.90342,-0.81562l0.05389,0.20629c0,0 -0.2393,0 -0.33466,-0.1916z" fill="#ff0000" stroke="none" stroke-width="0.5" stroke-linecap="butt"/><g stroke="none" stroke-width="0.5" stroke-linecap="butt"><path d="M237.88494,140.89155c0,0 -0.35747,-0.17873 -0.41846,-0.53619c-0.41991,0.03631 -0.74449,0.06404 -0.8924,0.06252c-0.48244,0.1608 -1.19051,0.15697 -1.95163,0.14059v0.07261c0,1.34526 -0.20972,2.83373 0.23312,4.10668c0,0 0.18609,0.55829 -0.26793,0.84866c0.04259,0.66261 0.01726,1.43563 0.19835,1.95853l1.19039,-0.17005l0.78859,-0.13144l0.02668,0.00213l0.02478,-0.01011l0.94998,-0.13571l0.16031,0.01659l0.15636,-0.03908h0.0537c-0.35808,-1.18785 -0.63164,-2.96965 0.4214,-3.89815c0.00703,-0.99189 0.34993,-1.88728 -0.6732,-2.28759zM241.91193,140.59171c-0.13025,-0.38508 -1.27835,-0.42908 -2.48506,-0.37653c0.59526,0.64356 0.63047,1.38546 0.62674,2.39574c1.08885,-0.33079 2.26945,-0.80371 1.85833,-2.01921zM233.12965,140.63107v-0.07918c-1.18554,0.04804 -2.22838,0.30558 -2.46744,1.35514c-0.64612,2.83678 1.03436,1.61532 2.49045,1.85405c-0.09902,-1.03057 -0.023,-2.0859 -0.023,-3.13001zM233.13482,145.41022c-0.09587,-0.24479 -2.72155,-0.05174 -2.93715,-0.15397c-1.38186,-0.65515 -1.30295,-2.50479 -0.97895,-3.72977c0.91824,-3.47153 4.6717,-1.76727 7.11623,-2.58212c1.55989,-0.01375 5.97655,-0.94238 6.87601,0.91185c1.99864,4.12019 -4.94878,3.05619 -3.60557,6.9172l0.03132,0.30388h1.43194l0.18155,0.0454l0.18657,-0.01493l0.72364,0.1206l1.53696,0.12807l0.06374,0.02169l0.06697,-0.00693l1.89994,0.27142l0.15719,0.06404l0.16957,0.00788l1.35709,0.40713l0.20171,0.11993l0.22712,0.05906l1.49281,0.81425l0.19748,0.1819l0.23653,0.12702l1.49281,1.35709l0.09272,0.1391l0.13408,0.09984l1.22138,1.49281l0.0366,0.0776l0.06477,0.05626l0.94386,1.34835l0.67234,0.9413l0.03857,0.09791l0.07349,0.07533l0.94998,1.62852l0.0206,0.07085l0.04801,0.05602l0.13571,0.27142l0.02062,0.09275l0.05564,0.07703l0.54283,1.35711l0.00911,0.06671l0.03614,0.0568l0.13571,0.40713l0.00673,0.08754l0.04132,0.07748l0.12665,0.50664l0.20401,0.71399l0.17835,0.35669l0.03498,0.15733l0.08652,0.13596l0.13571,0.40713l0.00673,0.08754l0.04132,0.07746l0.04163,0.16657l0.05626,0.0844l0.0303,0.08485l0.06588,0.03765l0.12234,0.48933l0.16966,0.47501l-0.03393,0.06786l0.02185,0.0874v0.27142l-0.2799,1.1196l-0.22643,0.12938l-0.05114,0.25572l-0.97364,0.61959l-0.40713,0.13571l-0.20293,0.01561l-0.1885,0.07679l-0.94996,0.13571l-0.34203,-0.03539l-0.34276,0.02742l-0.63146,-0.10524h-4.4405l-2.22294,0.247l-0.53102,0.10621l-1.57682,0.39421h-0.27566l-0.26742,0.06685h-1.06158l-0.27815,0.11126l-0.20526,0.02799l-0.18723,0.08867l-0.62629,0.12526l-1.03399,0.25849h-0.11754l-0.10886,0.04435l-1.8384,0.26263l-1.29616,0.25923l-0.08348,-0.00397l-0.07794,0.03017l-2.17134,0.27142l-0.14046,-0.01702l-0.13726,0.03432h-12.07815l-1.1196,-0.2799l-0.06698,-0.11722c-0.0571,-0.03039 -0.11272,-0.06321 -0.16675,-0.09827l-0.03414,-0.0019l-0.04369,-0.05098c-0.31146,-0.22129 -0.56391,-0.52026 -0.72906,-0.86863l-0.04867,-0.09735l-0.02184,-0.01248l-0.0156,-0.0624l-0.0279,-0.0558l-0.11162,-0.50227l-0.1248,-0.49915v-0.0624l-0.01394,-0.06279l0.01394,-0.02093v-1.75384l0.10553,-0.42209l0.06315,-0.43048l0.94996,-2.30707l0.04961,-0.06724l0.01814,-0.08158l1.76421,-3.52844l0.04561,-0.05319l0.01935,-0.06734l1.49281,-2.57848l0.02703,-0.0279l0.01199,-0.03695l1.35709,-2.17134l0.18399,-0.17742l0.1315,-0.21917l0.81427,-0.81427l0.21916,-0.1315l0.17742,-0.18399l1.08569,-0.67854l0.10308,-0.03344l0.08228,-0.07054l0.81427,-0.40713l0.20465,-0.04547l0.1816,-0.10477l0.90319,-0.25806l1.17523,-0.39174l0.04974,-0.00384l0.0432,-0.02491l0.74987,-0.21425l0.55803,-0.27901c-0.19871,-0.86566 0.04043,-1.83537 -0.21255,-2.48137zM244.95806,157.94872c0.34575,0.99243 1.45326,2.36078 1.96792,3.6936l1.49512,-0.16613l0.12496,0.01688l0.12234,-0.03059h3.7975l-0.11505,-0.40265l-0.00128,-0.03828l-0.01802,-0.0338l-0.11484,-0.45941l-0.08772,-0.26311l-0.48382,-1.20953l-0.06179,-0.12357l-0.86157,-1.47698l-0.61853,-0.86593l-0.00403,-0.01021l-0.00829,-0.0072l-0.90179,-1.28828l-1.06361,-1.29995l-1.17209,-1.06555l-1.05223,-0.57394l-0.97267,-0.2918l-1.37625,-0.1966c0.56186,1.94592 0.84294,4.47765 1.40568,6.09302zM235.70812,162.89168c-0.01005,0.23765 0.00461,0.47634 0.01327,0.71459l0.64562,-0.0807l1.27687,-0.25537l0.06355,0.00303l0.05892,-0.024l1.78557,-0.25508l0.97361,-0.2434h0.05461l0.04934,-0.02338l0.47695,-0.09539l0.48767,-0.19506l0.42019,-0.05729l0.09969,-0.02491c-2.14203,-3.48233 -3.74708,-9.34211 -3.64856,-10.799h-0.22326l-0.76666,0.10953l-0.78859,0.13143l-0.02666,-0.00213l-0.02478,0.01011l-1.14577,0.16369c1.44172,2.63056 0.29728,9.05806 0.2184,10.92339zM231.29656,162.07294c0.31035,-2.48395 0.59349,-5.36525 -0.02983,-7.8585c-0.19721,-0.1832 -0.36135,-0.4015 -0.48246,-0.645l-0.01866,0.00933l-0.7792,0.487l-0.4536,0.4536l-1.20187,1.923l-1.43953,2.48646l-1.69702,3.39401l-0.5957,1.44668h6.8515c-0.16152,-0.53226 -0.22697,-1.10965 -0.15362,-1.69662z" fill="#000000"/><path d="M240.0179,142.67646c0.00373,-1.01029 -0.05055,-1.86842 -0.6458,-2.51199c1.20671,-0.05255 2.47141,0.00033 2.60166,0.3854c0.41112,1.2155 -0.86702,1.7958 -1.95587,2.12658z" data-paper-data="{&quot;noHover&quot;:false,&quot;origItem&quot;:[&quot;Path&quot;,{&quot;applyMatrix&quot;:true,&quot;segments&quot;:[[[556.3798,298.10634],[0.55081,1.62849],[-0.1745,-0.51591]],[[553.05041,297.60188],[1.6167,-0.0704],[0.79749,0.86222]],[[553.89009,300.8116],[0.00501,-1.35354],[1.4588,-0.44318]]],&quot;closed&quot;:true}]}" fill="#ffcc66"/><path d="M233.20055,143.81833c-1.45608,-0.23873 -3.25705,0.9081 -2.61093,-1.92867c0.23906,-1.04956 1.40076,-1.34827 2.58631,-1.39631l0.0014,0.08033c0,1.04411 -0.07579,2.2141 0.02321,3.24466z" data-paper-data="{&quot;noHover&quot;:false,&quot;origItem&quot;:[&quot;Path&quot;,{&quot;applyMatrix&quot;:true,&quot;segments&quot;:[[[544.61364,298.15909],[0,1.39887],[0,0]],[[544.61364,298.05301],[0,0],[-1.58835,0.06437]],[[541.30787,299.86857],[0.32027,-1.40617],[-0.86563,3.8006]],[[544.64447,302.35255],[-1.9508,-0.31984],[-0.13265,-1.38071]]],&quot;closed&quot;:true}]}" fill="#ffcc66"/><path d="M238.6276,143.15184c-1.05304,0.92849 -0.81595,2.80455 -0.45787,3.9924l-0.05462,0.00045l-0.15949,0.04048l-0.16322,-0.01542l-0.97098,0.1402l-0.02535,0.01014l-0.02727,-0.0021l-0.8057,0.13034l-1.21066,0.16328c-0.18109,-0.5229 -0.18006,-1.31543 -0.22267,-1.97804c0.45404,-0.29037 0.25779,-0.86504 0.25779,-0.86504c-0.44284,-1.27294 -0.20326,-2.85635 -0.20326,-4.2016l0.00061,-0.07298c0.76112,0.01639 1.50627,0.01011 1.98871,-0.15071c0.14792,0.00154 0.49051,-0.02411 0.91042,-0.06041c0.061,0.35745 0.42988,0.53995 0.42988,0.53995c1.02311,0.40031 0.7207,1.33718 0.71367,2.32906z" data-paper-data="{&quot;noHover&quot;:false,&quot;origItem&quot;:[&quot;Path&quot;,{&quot;applyMatrix&quot;:true,&quot;segments&quot;:[[[550.9846,298.50806],[1.37073,0.53631],[0,0]],[[550.42396,297.7897],[0.08173,0.47891],[-0.56258,0.04863]],[[549.22836,297.87345],[0.19817,0.00206],[-0.64636,0.21545]],[[546.61364,298.0618],[1.01971,0.02196],[0,0]],[[546.61364,298.15909],[0,0],[0,1.80232]],[[546.92596,303.66104],[-0.59331,-1.70544],[0,0]],[[546.56699,304.79805],[0.6083,-0.38902],[0.05707,0.88775]],[[546.83274,307.42201],[-0.24263,-0.70055],[0,0]],[548.42757,307.19418],[549.48408,307.01809],[549.51981,307.02095],[549.55301,307.00742],[550.82574,306.82561],[551.04052,306.84782],[551.25,306.79545],[[551.32194,306.79545],[0,0],[-0.47973,-1.59143]],[[551.88651,301.57287],[-1.41082,1.24397],[0.00943,-1.3289]]],&quot;closed&quot;:true}]}" fill="#ffcc66"/><path d="M243.5021,151.80053l1.38556,0.18936l0.98138,0.28689l1.06461,0.56931l1.19507,1.06294l1.10727,1.31639l0.92935,1.34008l0.0083,0.00748l0.00406,0.01058l0.61632,0.89041l0.85305,1.49709l0.06112,0.12465l0.47756,1.21799l0.08646,0.26453l0.1126,0.4618l0.01793,0.0339l0.00104,0.03851l0.11336,0.40431l-3.83845,0.01969l-0.12426,0.03083l-0.12687,-0.0167l-1.51772,0.16466c-0.51466,-1.33282 -1.67551,-2.74675 -2.02126,-3.73918c-0.56276,-1.61536 -0.82464,-4.22959 -1.38649,-6.1755z" data-paper-data="{&quot;noHover&quot;:false,&quot;origItem&quot;:[&quot;Path&quot;,{&quot;applyMatrix&quot;:true,&quot;segments&quot;:[[[560.46088,321.36056],[-0.75395,-2.16419],[0.46321,1.32962]],[[563.09742,326.3091],[-0.68952,-1.78566],[0,0]],[565.10052,326.08653],[565.26793,326.10915],[565.43182,326.06818],[570.51956,326.06818],[570.36543,325.52871],[570.36372,325.47743],[570.33957,325.43215],[570.1857,324.81665],[570.06819,324.46414],[569.42,322.84367],[569.33722,322.67811],[568.18292,320.69931],[567.35425,319.53917],[567.34886,319.52549],[567.33776,319.51584],[566.12958,317.78987],[564.70461,316.04825],[563.13429,314.62067],[561.72456,313.85173],[560.42142,313.46079],[[558.57759,313.19739],[0,0],[0.75275,2.60705]]],&quot;closed&quot;:true}]}" fill="#6aff66"/><path d="M235.45177,151.90401l1.15749,-0.16928l0.02508,-0.01021l0.02695,0.00203l0.79787,-0.13416l0.77608,-0.11102l0.22601,-0.00021c-0.09851,1.45687 1.55325,7.4525 3.69527,10.93484l-0.10072,0.02563l-0.42451,0.05998l-0.49389,0.19826l-0.48297,0.09782l-0.05004,0.02363l-0.05526,0.00022l-0.98697,0.24652l-1.80923,0.25458l-0.05959,0.02388l-0.06435,-0.00318l-1.29028,0.2513l-0.65131,0.07809c-0.00866,-0.23825 -0.02692,-0.47891 -0.01687,-0.71656c0.07888,-1.86533 1.22295,-8.42162 -0.21877,-11.05218z" data-paper-data="{&quot;noHover&quot;:false,&quot;origItem&quot;:[&quot;Path&quot;,{&quot;applyMatrix&quot;:true,&quot;segments&quot;:[[[548.06818,327.98295],[0.10568,-2.4991],[-0.01346,0.3184]],[[548.08597,328.94034],[-0.0116,-0.31921],[0,0]],[548.95095,328.83222],[550.66165,328.49008],[550.7468,328.49413],[550.82574,328.46197],[553.21799,328.12022],[554.52239,327.79412],[554.59554,327.79412],[554.66165,327.7628],[555.30066,327.635],[555.95401,327.37366],[556.51697,327.29689],[[556.65053,327.2635],[0,0],[-2.8698,-4.66549]],[[551.76232,312.79545],[-0.13197,1.95187],[0,0]],[551.4632,312.79545],[550.43607,312.94219],[549.37956,313.11827],[549.34383,313.11541],[549.31063,313.12894],[[547.77557,313.34823],[0,0],[1.93156,3.52432]]],&quot;closed&quot;:true}]}" fill="#7d66ff"/><path d="M231.491,163.83204l-6.93472,-0.00106l0.59145,-1.44984l1.67063,-3.43686l1.51965,-2.57619l1.21886,-1.91934l0.45759,-0.45211l0.78557,-0.48407l0.01881,-0.00926c0.12111,0.24349 0.29374,0.46699 0.49095,0.65018c0.62332,2.49325 0.34805,5.49004 0.03769,7.974c-0.07334,0.58697 -0.018,1.17228 0.14352,1.70456z" data-paper-data="{&quot;noHover&quot;:false,&quot;origItem&quot;:[&quot;Path&quot;,{&quot;applyMatrix&quot;:true,&quot;segments&quot;:[[[542.15775,326.88603],[-0.09826,0.7864],[0.4158,-3.32791]],[[542.11779,316.35754],[0.83509,3.34035],[-0.26422,-0.24544]],[[541.47141,315.4934],[0.16226,0.32621],[0,0]],[541.4464,315.5059],[540.40245,316.15837],[539.79473,316.76609],[538.18451,319.34245],[536.25589,322.67371],[533.9823,327.22088],[533.18421,329.15909],[[542.36358,329.15909],[0,0],[-0.21639,-0.71311]]],&quot;closed&quot;:true}]}" fill="#e366ff"/></g></g></g></svg>