<svg version="1.1" xmlns="http://www.w3.org/2000/svg" xmlns:xlink="http://www.w3.org/1999/xlink" width="57.70238" height="72.40271" viewBox="0,0,57.70238,72.40271"><g transform="translate(-211.1426,-144.29864)"><g data-paper-data="{&quot;isPaintingLayer&quot;:true}" fill-rule="nonzero" stroke-linejoin="miter" stroke-miterlimit="10" stroke-dasharray="" stroke-dashoffset="0" style="mix-blend-mode: normal"><g stroke="none" stroke-width="0.5" stroke-linecap="butt"><g data-paper-data="{&quot;index&quot;:null}"><path d="M242.44667,151.01358c-0.00534,-0.02745 -0.00827,-0.05758 -0.00827,-0.09063c0,-0.3732 0.3732,-0.3732 0.3732,-0.3732l0.32761,0.00281c3.48513,-0.80749 7.32151,-1.76032 11.08854,-2.51835c2.89543,-0.72403 6.2092,-1.10384 8.96937,-2.21529c0.9964,-0.40122 1.58639,-1.18845 2.47306,-1.33497v-0.1853h0.3732c0.20611,0 0.3732,0.16709 0.3732,0.3732c0,0.08537 -0.02868,0.16404 -0.07689,0.22694l-0.26272,0.35029c-1.08312,2.13061 -1.36041,4.39158 -1.82392,6.77399c-0.31213,2.60841 -1.48745,8.20567 -0.20838,10.58214c0,0 0.16691,0.33379 -0.1669,0.5007c-0.1802,0.09009 -0.31176,0.03427 -0.39468,-0.03617c-0.15016,0.12528 -0.35674,0.05641 -0.35674,0.05641l-0.32879,-0.11354c-0.56673,-0.30502 -1.34426,-0.31286 -1.97523,-0.56825c-3.04473,-2.26356 -6.77599,-3.07901 -9.74896,-5.44174c-2.66064,-1.99972 -5.63395,-3.77844 -8.46213,-5.57819c0,0 -0.24631,-0.15674 -0.16457,-0.41083z" fill="#cfa8c3"/><path d="M261.28506,158.85348l0.03941,-0.01969c-0.38399,-0.80768 0.61369,-3.05919 0.61369,-4.55203c0,0 0,-0.3732 0.3732,-0.3732c0.3732,0 0.3732,0.3732 0.3732,0.3732c0,1.25378 -0.94348,3.7519 -0.69251,4.2182l0.03941,0.35351c0,0 0,0.3732 -0.3732,0.3732c-0.3732,0 -0.3732,-0.3732 -0.3732,-0.3732z" fill="#e5bad8"/><path d="M260.44535,148.68373v-0.0933c0.0555,-1.69395 1.1315,-1.15758 1.94045,-0.31156c0.36645,0.38323 0.42302,-1.23595 0.95186,-1.27454c0,0 0.3732,0 0.3732,0.3732c0,0.3732 -0.3732,0.3732 -0.3732,0.3732c-0.68429,-0.1307 -0.08204,0.98374 -0.54095,1.15127c-0.91361,0.33352 -1.66914,-1.47943 -1.60496,-0.31156v0.0933c0,0 0,0.3732 -0.3732,0.3732c-0.3732,0 -0.3732,-0.3732 -0.3732,-0.3732z" fill="#e5bad8"/><path d="M252.98132,150.36315l-0.04653,0.08179c1.26172,-1.00921 1.92814,-0.18029 2.95855,-0.69548c0,0 0.33379,-0.16691 0.5007,0.1669c0.16691,0.33379 -0.1669,0.5007 -0.1669,0.5007c-1.25134,0.62568 -1.63498,-0.34232 -2.82607,0.61072l-0.41973,0.08179c0,0 -0.3732,0 -0.3732,-0.3732c0,-0.3732 0.3732,-0.3732 0.3732,-0.3732z" fill="#e5bad8"/><path d="M256.86931,153.88815l0.16333,-0.23979c0.35427,-0.60076 1.30573,-1.11847 1.09457,-1.78317c0,0 -0.10253,-0.35884 0.25631,-0.46137c0.35884,-0.10253 0.46137,0.25631 0.46137,0.25631c0.5163,1.96301 -0.85091,1.37638 -1.14464,2.32204l-0.20987,0.32001c0,0 -0.20702,0.31052 -0.51754,0.10351c-0.31052,-0.20702 -0.10351,-0.51754 -0.10351,-0.51754z" fill="#e5bad8"/><path d="M261.20291,151.85875l0.13061,-0.46656c0.41964,-0.40053 0.97364,-0.27995 0.7985,-0.76924c0,0 -0.07319,-0.36596 0.29277,-0.43914c0.36596,-0.07319 0.43914,0.29277 0.43914,0.29277c0.06713,0.51451 -0.55111,0.8828 -0.8809,1.28336l-0.056,0.27984c0,0 -0.09051,0.36206 -0.45257,0.27154c-0.36206,-0.09051 -0.27154,-0.45257 -0.27154,-0.45257z" fill="#e5bad8"/></g><g><path d="M237.77877,152.26412c-2.82818,1.79976 -5.80149,3.57846 -8.46213,5.57819c-2.97295,2.36272 -6.70423,3.17817 -9.74896,5.44174c-0.63098,0.2554 -1.40852,0.26323 -1.97523,0.56825l-0.32879,0.11354c0,0 -0.20657,0.06886 -0.35674,-0.05641c-0.08291,0.07045 -0.21449,0.12626 -0.39468,0.03617c-0.33379,-0.16691 -0.1669,-0.5007 -0.1669,-0.5007c1.27907,-2.37647 0.10375,-7.97373 -0.20838,-10.58214c-0.46352,-2.38241 -0.74079,-4.64339 -1.82392,-6.77399l-0.2627,-0.35029c-0.04823,-0.06288 -0.07689,-0.14156 -0.07689,-0.22694c0,-0.20611 0.16709,-0.3732 0.3732,-0.3732h0.3732v0.1853c0.88667,0.14652 1.47667,0.93375 2.47306,1.33497c2.76017,1.11145 6.07394,1.49128 8.96937,2.21529c3.76703,0.75803 7.60341,1.71084 11.08854,2.51835l0.32761,-0.00281c0,0 0.3732,0 0.3732,0.3732c0,0.03304 -0.00293,0.06318 -0.00827,0.09063c0.08175,0.25409 -0.16457,0.41083 -0.16457,0.41083z" fill="#cfa8c3"/><path d="M218.73176,160.06638c-0.3732,0 -0.3732,-0.3732 -0.3732,-0.3732l0.0394,-0.3535c0.25099,-0.46632 -0.6925,-2.96444 -0.6925,-4.21822c0,0 0,-0.3732 0.3732,-0.3732c0.3732,0 0.3732,0.3732 0.3732,0.3732c0,1.49282 0.9977,3.74434 0.61371,4.55201l0.0394,0.01971c0,0 0,0.3732 -0.3732,0.3732z" fill="#e5bad8"/><path d="M219.57146,149.89665c-0.3732,0 -0.3732,-0.3732 -0.3732,-0.3732v-0.0933c0.06418,-1.16787 -0.69135,0.6451 -1.60494,0.31156c-0.4589,-0.16754 0.14334,-1.28196 -0.54096,-1.15127c0,0 -0.3732,0 -0.3732,-0.3732c0,-0.3732 0.3732,-0.3732 0.3732,-0.3732c0.52884,0.03857 0.58539,1.65779 0.95184,1.27454c0.80895,-0.84602 1.88496,-1.38238 1.94047,0.31156v0.0933c0,0 0,0.3732 -0.3732,0.3732z" fill="#e5bad8"/><path d="M227.78189,151.57605c0,0.3732 -0.3732,0.3732 -0.3732,0.3732l-0.41973,-0.08178c-1.19109,-0.95302 -1.57473,0.01494 -2.82607,-0.61072c0,0 -0.33381,-0.1669 -0.1669,-0.5007c0.1669,-0.33381 0.5007,-0.1669 0.5007,-0.1669c1.03041,0.51521 1.69683,-0.31374 2.95855,0.69548l-0.04653,-0.08178c0,0 0.3732,0 0.3732,0.3732z" fill="#e5bad8"/><path d="M223.41718,155.24538c-0.31052,0.20702 -0.51754,-0.10351 -0.51754,-0.10351l-0.20987,-0.32001c-0.29374,-0.94565 -1.66094,-0.35902 -1.14464,-2.32203c0,0 0.10253,-0.35884 0.46137,-0.25631c0.35884,0.10253 0.25631,0.46137 0.25631,0.46137c-0.21116,0.6647 0.7403,1.18242 1.09457,1.78319l0.16333,0.23979c0,0 0.20702,0.31052 -0.10351,0.51754z" fill="#e5bad8"/><path d="M218.91557,153.15102c-0.36206,0.09051 -0.45257,-0.27154 -0.45257,-0.27154l-0.056,-0.27984c-0.32979,-0.40058 -0.94804,-0.76887 -0.8809,-1.28336c0,0 0.07319,-0.36596 0.43914,-0.29277c0.36596,0.07319 0.29277,0.43914 0.29277,0.43914c-0.17514,0.4893 0.37887,0.36869 0.7985,0.76924l0.13061,0.46656c0,0 0.09051,0.36206 -0.27154,0.45257z" fill="#e5bad8"/></g></g><path d="M212.15919,179.94868c0,-15.37606 12.46476,-27.84081 27.84081,-27.84081c15.37606,0 27.84081,12.46476 27.84081,27.84081c0,15.37606 -12.46476,27.84081 -27.84081,27.84081c-15.37606,0 -27.84081,-12.46476 -27.84081,-27.84081z" fill="#bc40ff" stroke="#000000" stroke-width="2" stroke-linecap="butt"/><path d="M212.75631,215.70136l-0.59712,-35.52876l55.68163,-1.19424l-0.14928,36.723z" fill="#bc40ff" stroke="#000000" stroke-width="2" stroke-linecap="butt"/><path d="M265.00448,178.81503l-48.36688,1.13804" fill="#bc40ff" stroke="#bc40ff" stroke-width="2.5" stroke-linecap="round"/><path d="M213.5027,180.1726c0,-2.06113 1.67088,-3.73201 3.73201,-3.73201c2.06113,0 3.73201,1.67088 3.73201,3.73201c0,2.06113 -1.67088,3.73201 -3.73201,3.73201c-2.06113,0 -3.73201,-1.67088 -3.73201,-3.73201z" fill="#bc40ff" stroke="none" stroke-width="0.5" stroke-linecap="butt"/><path d="M215.80427,179.21513l48.36688,-1.13804" fill="none" stroke="#bc40ff" stroke-width="4.5" stroke-linecap="round"/><path d="M258.58541,180.919c0,-2.06113 1.67088,-3.73201 3.73201,-3.73201c2.06113,0 3.73201,1.67088 3.73201,3.73201c0,2.06113 -1.67088,3.73201 -3.73201,3.73201c-2.06113,0 -3.73201,-1.67088 -3.73201,-3.73201z" fill="#bc40ff" stroke="none" stroke-width="0.5" stroke-linecap="butt"/><path d="M222.31026,175.43392c0,-3.67929 2.98265,-6.66193 6.66193,-6.66193c3.67929,0 6.66193,2.98265 6.66193,6.66193c0,3.67929 -2.98265,6.66193 -6.66193,6.66193c-3.67929,0 -6.66193,-2.98264 -6.66193,-6.66193z" fill="#000000" stroke="#000000" stroke-width="NaN" stroke-linecap="butt"/><path d="M226.61901,172.749c0,-1.96652 1.59417,-3.56068 3.56068,-3.56068c1.96652,0 3.56068,1.59417 3.56068,3.56068c0,1.96652 -1.59417,3.56068 -3.56068,3.56068c-1.96652,0 -3.56068,-1.59417 -3.56068,-3.56068z" fill="#ffffff" stroke="none" stroke-width="0" stroke-linecap="butt"/><path d="M252.37132,169.46116c3.67927,0 6.66193,2.98265 6.66193,6.66193c0,3.67927 -2.98265,6.66193 -6.66193,6.66193c-3.67927,0 -6.66193,-2.98265 -6.66193,-6.66193c0,-3.67927 2.98265,-6.66193 6.66193,-6.66193z" data-paper-data="{&quot;index&quot;:null}" fill="#000000" stroke="#000000" stroke-width="NaN" stroke-linecap="butt"/><path d="M250.18268,169.9292c1.9665,0 3.56068,1.59417 3.56068,3.56068c0,1.9665 -1.59417,3.56068 -3.56068,3.56068c-1.96652,0 -3.56068,-1.59417 -3.56068,-3.56068c0,-1.96652 1.59417,-3.56068 3.56068,-3.56068z" data-paper-data="{&quot;index&quot;:null}" fill="#ffffff" stroke="none" stroke-width="0" stroke-linecap="butt"/><path d="M243.50807,177.93339c1.1196,0 1.1196,1.1196 1.1196,1.1196v0.29856c-0.0761,3.30952 -4.05404,5.7636 -7.07034,3.39015c-0.05291,-0.04162 -1.45102,-2.85209 -1.46973,-2.88946c0,0 -0.5007,-1.0014 0.5007,-1.50211c0.33755,-0.16878 0.61822,-0.16688 0.84199,-0.0902c1.75184,0 3.50367,0 5.25551,0c0.16524,-0.18367 0.42231,-0.32655 0.82228,-0.32655zM238.16108,179.00635c0.0001,0.00025 0.00021,0.00051 0.00031,0.00076c0.00022,-0.00025 0.00042,-0.00051 0.00064,-0.00076c-0.00031,0 -0.00064,0 -0.00096,0z" fill="#000000" stroke="none" stroke-width="0.5" stroke-linecap="butt"/><path d="M222.88699,178.62692c0,-1.14206 0.92582,-2.06788 2.06788,-2.06788c1.14206,0 2.06788,0.92582 2.06788,2.06788c0,1.14206 -0.92582,2.06788 -2.06788,2.06788c-1.14206,0 -2.06788,-0.92581 -2.06788,-2.06788z" fill="#ffffff" stroke="none" stroke-width="0" stroke-linecap="butt"/><path d="M255.99622,181.5345c-1.14206,0 -2.06788,-0.92581 -2.06788,-2.06788c0,-1.14206 0.92582,-2.06788 2.06788,-2.06788c1.14206,0 2.06788,0.92582 2.06788,2.06788c0,1.14206 -0.92581,2.06788 -2.06788,2.06788z" data-paper-data="{&quot;index&quot;:null}" fill="#ffffff" stroke="none" stroke-width="0" stroke-linecap="butt"/><path d="M237.09957,182.26686c-0.11321,-0.01452 -0.28501,-0.07742 -0.31556,-0.32189c-0.04629,-0.37032 0.32403,-0.41661 0.32403,-0.41661c2.27372,-0.28213 7.28126,-1.76305 6.1757,1.53944c-1.06633,1.97032 -5.13912,0.69062 -5.90342,-0.81562l0.05389,0.20629c0,0 -0.2393,0 -0.33466,-0.1916z" fill="#ff0000" stroke="none" stroke-width="0.5" stroke-linecap="butt"/><path d="M224.63607,184.71368c0.26388,0.26388 0,0.52778 0,0.52778l-0.25788,0.25588c-0.19984,0.28792 -0.39921,0.55971 -0.60833,0.8254l0.01585,0.00634l-0.18338,0.45843c-0.05292,0.14174 -0.18954,0.24267 -0.34973,0.24267c-0.20611,0 -0.3732,-0.16709 -0.3732,-0.3732v-0.3732c0.00355,-0.38729 0.3276,-2.25205 0.29229,-2.20338c-0.28686,0.45053 -1.11841,2.18794 -1.92839,1.46568c-0.61683,-0.55002 0.30247,-1.65189 -0.05434,-2.26281c-0.4989,-0.85418 -1.64673,2.54049 -2.33572,1.83067c-0.35012,-0.36072 0.48577,-2.07785 0.59321,-2.4003c0,0 0.11802,-0.35405 0.47207,-0.23603c0.35405,0.11802 0.23603,0.47207 0.23603,0.47207c-0.12919,0.38738 -0.23548,0.6932 -0.32086,0.92987c0.33346,-0.66946 0.92518,-1.55108 1.56395,-1.31289c0.89129,0.33234 0.61369,1.77904 0.31886,2.40221c-0.26393,0.55788 0.66802,-1.04098 1.05722,-1.51993c1.318,-0.14158 1.24412,0.64936 1.0574,1.54378l0.27721,-0.27905c0,0 0.26388,-0.26388 0.52778,0z" fill="#ff5dcd" stroke="none" stroke-width="0.5" stroke-linecap="butt"/><path d="M260.94591,183.39146c0,0.3732 -0.3732,0.3732 -0.3732,0.3732l-0.05598,-0.07464c-0.80304,0.34751 -1.55411,2.23946 -2.75037,1.35805c0.28274,0.68896 0.44168,1.6159 -0.26624,1.78196c-0.66624,0.15628 -1.55929,-1.76429 -1.94962,-2.14837c0,0 -0.26388,-0.26388 0,-0.52778c0.26388,-0.26388 0.52778,0 0.52778,0c1.1803,1.19621 2.27972,2.23239 0.62426,0.54107l-0.00128,-0.10238l-0.03602,0.009l-0.09127,-0.36508c-0.00858,-0.03141 -0.01318,-0.0645 -0.01318,-0.09864c0,-0.20611 0.16709,-0.3732 0.3732,-0.3732c0.05514,0 0.10748,0.01196 0.15459,0.03342l0.64552,0.27666l-0.01194,0.02786c0.32004,0.09712 0.63934,0.22291 0.88591,0.39074c-0.16269,-0.21302 -0.31132,-0.46965 -0.26548,-0.62396c0.10693,-0.35986 1.44012,-0.51738 1.72629,-0.77648l0.50382,-0.07464c0,0 0.3732,0 0.3732,0.3732z" fill="#ff5dcd" stroke="none" stroke-width="0.5" stroke-linecap="butt"/></g></g></svg>