<svg version="1.1" xmlns="http://www.w3.org/2000/svg" xmlns:xlink="http://www.w3.org/1999/xlink" width="39.16667" height="60" viewBox="0,0,39.16667,60"><g transform="translate(-193.25,-146.91668)"><g data-paper-data="{&quot;isPaintingLayer&quot;:true}" fill-rule="nonzero" stroke-linejoin="miter" stroke-miterlimit="10" stroke-dasharray="" stroke-dashoffset="0" style="mix-blend-mode: normal"><path d="M198.25,155.25c5.04736,-5.68745 16.39478,-7.73507 22.32372,-3.26682c0.70027,0.52774 2.52527,0.12882 3.42628,0.57932c2.36856,1.18428 6.77229,7.48854 5.60417,10.10417c-1.1283,2.52645 -3.19242,0.07511 -4.35814,0.11489c-0.2181,0.00744 -1.36362,2.41961 -2.52294,2.48402c-1.05673,0.05871 -1.32727,-0.47437 -2.12796,-0.78728c-0.93884,-0.3669 -3.40856,0.31067 -4.48893,0.27762c-2.9496,-0.09023 -5.76615,3.01138 -9.1687,2.16074c-1.09441,-0.2736 -2.14808,-2.07228 -2.65587,-2.20682c-1.18596,-0.31421 -2.50889,-1.73958 -3.52644,-1.05415c-0.23678,0.15949 -0.47485,0.51142 -0.75313,0.8197c-0.37082,0.41079 -0.81304,0.74408 -1.41872,0.44127c-1.0652,0 -1.9748,-0.66619 -2.33489,-1.60465c-0.16002,-0.25268 -0.23113,-0.52858 -0.16426,-0.82952c-0.00057,-0.02188 -0.00085,-0.04382 -0.00085,-0.06584c0,-0.34957 0.07175,-0.68238 0.20132,-0.98451c0.36915,-2.1631 0.37674,-4.39208 1.96535,-6.18216z" fill="#e300ff" stroke="none" stroke-width="0.5" stroke-linecap="butt"/><path d="M195.91667,205.41669v-43.5h34.5v43.5z" fill="#e300ff" stroke="none" stroke-width="0" stroke-linecap="butt"/><g fill="none" stroke="#000000" stroke-width="3"><path d="M195.00788,169.56031c-0.16956,-0.99476 -0.25788,-2.01721 -0.25788,-3.06029c0,-9.98715 8.09618,-18.08334 18.08334,-18.08334c9.98715,0 18.08333,8.09619 18.08333,18.08334c0,0.23873 -0.00462,0.47638 -0.01379,0.71287" stroke-linecap="butt"/><path d="M230.91667,164.23026v3.04337v6.14933v31.99373h-36v-41.83333" stroke-linecap="round"/></g><path d="M202.25,164.75c0,-2.02504 1.64162,-3.66667 3.66667,-3.66667c2.02504,0 3.66667,1.64162 3.66667,3.66667c0,2.02504 -1.64162,3.66667 -3.66667,3.66667c-2.02504,0 -3.66667,-1.64162 -3.66667,-3.66667z" fill="#000000" stroke="none" stroke-width="0" stroke-linecap="butt"/><path d="M215.75,164.25c0,-2.02505 1.64162,-3.66666 3.66666,-3.66666c2.02505,0 3.66667,1.64162 3.66667,3.66666c0,2.02505 -1.64163,3.66667 -3.66667,3.66667c-2.02505,0 -3.66666,-1.64163 -3.66666,-3.66667z" fill="#000000" stroke="none" stroke-width="0" stroke-linecap="butt"/><path d="M205.55952,163.78571c0,-0.8087 0.65558,-1.46429 1.46429,-1.46429c0.8087,0 1.46429,0.65558 1.46429,1.46429c0,0.8087 -0.65558,1.46429 -1.46429,1.46429c-0.8087,0 -1.46429,-0.65558 -1.46429,-1.46429z" fill="#ffffff" stroke="none" stroke-width="0" stroke-linecap="butt"/><path d="M204.41667,166.14287c0,-0.57201 0.46371,-1.03571 1.03571,-1.03571c0.57201,0 1.03571,0.46371 1.03571,1.03571c0,0.57201 -0.46371,1.03571 -1.03571,1.03571c-0.57201,0 -1.03571,-0.46371 -1.03571,-1.03571z" fill="#ffffff" stroke="none" stroke-width="0" stroke-linecap="butt"/><path d="M218.45238,165.10714c-0.80871,0 -1.46428,-0.65558 -1.46428,-1.46428c0,-0.80871 0.65558,-1.46429 1.46428,-1.46429c0.80871,0 1.46428,0.65558 1.46428,1.46429c0,0.80871 -0.65558,1.46428 -1.46428,1.46428z" data-paper-data="{&quot;index&quot;:null}" fill="#ffffff" stroke="none" stroke-width="0" stroke-linecap="butt"/><path d="M220.02381,167.03571c-0.57201,0 -1.03571,-0.46371 -1.03571,-1.03572c0,-0.57201 0.4637,-1.03571 1.03571,-1.03571c0.57201,0 1.03572,0.4637 1.03572,1.03571c0,0.57201 -0.46371,1.03572 -1.03572,1.03572z" data-paper-data="{&quot;index&quot;:null}" fill="#ffffff" stroke="none" stroke-width="0" stroke-linecap="butt"/><path d="M212.19999,178.17661l-0.03729,-0.01788c0,0 0.02391,0 0.05694,0.00739c0.04192,-0.03507 0.19199,-0.1398 0.34206,0.01027c0.17678,0.17678 0,0.35355 0,0.35355l-0.03712,0.03495c-0.31478,0.39348 -0.81673,1.27401 -1.24667,1.50619c-0.45016,0.24309 -2.66846,-0.06227 -2.64112,-0.80402c0.01286,-0.34866 1.10187,-1.50404 1.31789,-1.83035c0,0 0.13868,-0.20801 0.34669,-0.06934c0.03434,0.02289 0.05923,0.04768 0.07686,0.0731c0.61793,0.2166 1.21354,0.49284 1.82176,0.73612z" fill="#ffe5e5" stroke="none" stroke-width="0.5" stroke-linecap="butt"/><path d="M208.63095,174.03573c0,-2.24859 1.82284,-4.07143 4.07143,-4.07143c2.24859,0 4.07143,1.82284 4.07143,4.07143c0,2.24859 -1.82284,4.07143 -4.07143,4.07143c-2.24859,0 -4.07143,-1.82284 -4.07143,-4.07143z" fill="none" stroke="#000000" stroke-width="2" stroke-linecap="butt"/><path d="M206.80952,169.91964c1.73747,-0.97735 11.74283,-2.23745 13.47421,0.79247c2.41435,4.22512 -2.92757,3.93457 -5.42685,3.89503c-2.69086,-0.04257 -6.73098,1.99115 -8.06619,-0.34546c-0.73685,-0.43488 -1.23117,-1.23698 -1.23117,-2.15454c0,-0.81357 0.38862,-1.53638 0.99036,-1.99291c0.07697,-0.07451 0.16278,-0.14011 0.25964,-0.19459z" fill="#e300ff" stroke="none" stroke-width="0.5" stroke-linecap="butt"/></g></g></svg>