<svg version="1.1" xmlns="http://www.w3.org/2000/svg" xmlns:xlink="http://www.w3.org/1999/xlink" width="53.22917" height="71.80631" viewBox="0,0,53.22917,71.80631"><g transform="translate(-179.1875,-135.11038)"><g data-paper-data="{&quot;isPaintingLayer&quot;:true}" fill-rule="nonzero" stroke-linejoin="miter" stroke-miterlimit="10" stroke-dasharray="" stroke-dashoffset="0" style="mix-blend-mode: normal"><path d="M198.25,155.25c5.04736,-5.68745 16.39478,-7.73507 22.32372,-3.26682c0.70027,0.52774 2.52527,0.12882 3.42628,0.57932c2.36856,1.18428 6.77229,7.48854 5.60417,10.10417c-1.1283,2.52645 -3.19242,0.07511 -4.35814,0.11489c-0.2181,0.00744 -1.36362,2.41961 -2.52294,2.48402c-1.05673,0.05871 -1.32727,-0.47437 -2.12796,-0.78728c-0.93884,-0.3669 -3.40856,0.31067 -4.48893,0.27762c-2.9496,-0.09023 -5.76615,3.01138 -9.1687,2.16074c-1.09441,-0.2736 -2.14808,-2.07228 -2.65587,-2.20682c-1.18596,-0.31421 -2.50889,-1.73958 -3.52644,-1.05415c-0.23678,0.15949 -0.47485,0.51142 -0.75313,0.8197c-0.37082,0.41079 -0.81304,0.74408 -1.41872,0.44127c-1.0652,0 -1.9748,-0.66619 -2.33489,-1.60465c-0.16002,-0.25268 -0.23113,-0.52858 -0.16426,-0.82952c-0.00057,-0.02188 -0.00085,-0.04382 -0.00085,-0.06584c0,-0.34957 0.07175,-0.68238 0.20132,-0.98451c0.36915,-2.1631 0.37674,-4.39208 1.96535,-6.18216z" fill="#ffc934" stroke="none" stroke-width="0.5" stroke-linecap="butt"/><path d="M195.91667,205.4167v-43.5h34.5v43.5z" fill="#ffc934" stroke="none" stroke-width="0" stroke-linecap="butt"/><g fill="none" stroke="#000000" stroke-width="3"><path d="M195.00788,169.56032c-0.16956,-0.99476 -0.25788,-2.01721 -0.25788,-3.06029c0,-9.98715 8.09618,-18.08334 18.08334,-18.08334c9.98715,0 18.08333,8.09619 18.08333,18.08334c0,0.23873 -0.00462,0.47638 -0.01379,0.71287" stroke-linecap="butt"/><path d="M230.91667,164.23027v3.04337v6.14933v31.99373h-36v-41.83333" stroke-linecap="round"/></g><path d="M202.25,164.75c0,-2.02504 1.64162,-3.66667 3.66667,-3.66667c2.02504,0 3.66667,1.64162 3.66667,3.66667c0,2.02504 -1.64162,3.66667 -3.66667,3.66667c-2.02504,0 -3.66667,-1.64162 -3.66667,-3.66667z" fill="#000000" stroke="none" stroke-width="0" stroke-linecap="butt"/><path d="M215.75,164.25c0,-2.02505 1.64162,-3.66666 3.66666,-3.66666c2.02505,0 3.66667,1.64162 3.66667,3.66666c0,2.02505 -1.64163,3.66667 -3.66667,3.66667c-2.02505,0 -3.66666,-1.64163 -3.66666,-3.66667z" fill="#000000" stroke="none" stroke-width="0" stroke-linecap="butt"/><path d="M205.55952,163.78572c0,-0.8087 0.65558,-1.46429 1.46429,-1.46429c0.8087,0 1.46429,0.65558 1.46429,1.46429c0,0.8087 -0.65558,1.46429 -1.46429,1.46429c-0.8087,0 -1.46429,-0.65558 -1.46429,-1.46429z" fill="#ffffff" stroke="none" stroke-width="0" stroke-linecap="butt"/><path d="M204.41667,166.14288c0,-0.57201 0.46371,-1.03571 1.03571,-1.03571c0.57201,0 1.03571,0.46371 1.03571,1.03571c0,0.57201 -0.46371,1.03571 -1.03571,1.03571c-0.57201,0 -1.03571,-0.46371 -1.03571,-1.03571z" fill="#ffffff" stroke="none" stroke-width="0" stroke-linecap="butt"/><path d="M218.45238,165.10715c-0.80871,0 -1.46428,-0.65558 -1.46428,-1.46428c0,-0.80871 0.65558,-1.46429 1.46428,-1.46429c0.80871,0 1.46428,0.65558 1.46428,1.46429c0,0.80871 -0.65558,1.46428 -1.46428,1.46428z" data-paper-data="{&quot;index&quot;:null}" fill="#ffffff" stroke="none" stroke-width="0" stroke-linecap="butt"/><path d="M220.02381,167.03572c-0.57201,0 -1.03571,-0.46371 -1.03571,-1.03572c0,-0.57201 0.4637,-1.03571 1.03571,-1.03571c0.57201,0 1.03572,0.4637 1.03572,1.03571c0,0.57201 -0.46371,1.03572 -1.03572,1.03572z" data-paper-data="{&quot;index&quot;:null}" fill="#ffffff" stroke="none" stroke-width="0" stroke-linecap="butt"/><path d="M206.80952,169.91965c1.73747,-0.97735 11.74283,-2.23745 13.47421,0.79247c2.41435,4.22512 -2.92757,3.93457 -5.42685,3.89503c-2.69086,-0.04257 -6.73098,1.99115 -8.06619,-0.34546c-0.73685,-0.43488 -1.23117,-1.23698 -1.23117,-2.15454c0,-0.81357 0.38862,-1.53638 0.99036,-1.99291c0.07697,-0.07451 0.16278,-0.14011 0.25964,-0.19459z" fill="#ffc934" stroke="none" stroke-width="0.5" stroke-linecap="butt"/><path d="M215.05159,175.79763h-8.88889" fill="none" stroke="#000000" stroke-width="2" stroke-linecap="round"/><path d="M200.60715,151.46428c-3.26549,-3.26549 -2.79488,-7.90156 0,-11.83333c2.79488,-3.93177 5.87175,1.53196 4.91666,4.91667" fill="#ffeaae" stroke="#000000" stroke-width="2" stroke-linecap="round"/><path d="M206.10715,143.96428c0,-3.11219 2.44173,-6.22751 5.63888,-5.63889" fill="#ffda73" stroke="#000000" stroke-width="2" stroke-linecap="round"/><path d="M212.1627,138.61707c2.94355,0 2.29796,5.82376 5.33333,5.33333c3.03537,-0.49043 4.15127,-9.99358 7.38889,-7.38888c3.23762,2.60469 0,13.33333 0,13.33333h-24.16666" fill="#ffeaae" stroke="#000000" stroke-width="2" stroke-linecap="round"/><path d="M211.84048,140.50318c-0.25,0 -0.25,-0.25 -0.25,-0.25l0.00962,-0.04243c-0.06103,-0.21589 -0.14086,-0.35441 -0.23675,-0.43178c-0.02237,0.5666 -0.61149,1.40939 -1.21453,1.41123c-0.05249,0.02462 -0.1091,0.0405 -0.16944,0.04602c-0.07487,0.04043 -0.14266,0.06614 -0.20363,0.0788c-0.2238,0.35127 -0.58446,0.55302 -0.84596,0.60979c-0.05454,0.36096 -0.14658,0.69218 -0.29211,0.99138c-0.58232,1.5349 -1.87717,3.41898 -3.56848,3.03663l-0.12424,0.10353l-0.00639,-0.00767l-0.01681,0.02484c-0.01001,0.00147 -0.02002,0.00294 -0.03002,0.00441l0.00499,0.00997l-0.32883,0.16441c-0.01819,0.00958 -0.03771,0.01698 -0.05821,0.02186l-0.36102,0.24068c-0.04024,0.02768 -0.08899,0.04388 -0.14151,0.04388c-0.13807,0 -0.25,-0.11193 -0.25,-0.25c0,-0.04675 0.01282,-0.0905 0.03516,-0.12793l0.21606,-0.37776c0.07321,-0.14649 0.14641,-0.29296 0.21962,-0.43945c0,0 0.11181,-0.22361 0.33541,-0.11181c0.09817,0.04908 0.13169,0.11972 0.13841,0.18353c0.09531,-0.0799 0.19573,-0.15994 0.29605,-0.24897l0.33261,-0.33226l0.00001,-0.00001c0.04523,-0.04519 0.1077,-0.07314 0.17669,-0.07314c0.11537,0 0.21248,0.07815 0.2413,0.1844c0.80716,-0.36972 1.4571,-0.57746 1.94469,-1.20709l-0.01839,-0.06064h-0.08427v-0.27778c0,-0.03729 -0.00054,-0.07283 -0.00138,-0.10683l-0.0988,0.13833c-0.04515,0.06492 -0.1203,0.1074 -0.20537,0.1074c-0.13807,0 -0.25,-0.11193 -0.25,-0.25c0,-0.03742 0.00822,-0.07292 0.02295,-0.10479l0.10787,-0.24786l0.00787,0.00342l0.00043,-0.02067c0.1011,-0.1601 0.19983,-0.30827 0.30035,-0.44667c0.01326,-0.03767 0.02755,-0.07469 0.04244,-0.11083l0.08088,-0.29926c0.02687,-0.10909 0.12536,-0.19 0.24275,-0.19c0.04287,0 0.08321,0.01078 0.11847,0.0298c0.04274,-0.04209 0.08659,-0.08331 0.13175,-0.12375c0.00149,-0.03571 0.01047,-0.06948 0.02541,-0.09978c-0.08115,-0.04131 -0.13674,-0.12563 -0.13674,-0.22294c0,-0.09649 0.05466,-0.1802 0.1347,-0.22188l0.29456,-0.16074c0.03587,-0.02367 0.07268,-0.04581 0.11032,-0.0665l0.11069,-0.13282c0.17124,-0.29351 0.45718,-0.62133 0.79488,-0.90927c0.22018,-0.75295 0.73057,-1.5655 1.16656,-1.26799c0.15388,-0.03212 0.31865,-0.02335 0.49237,0.0382c0.02624,0.09844 0.04048,0.2606 0.03939,0.45424c0.42496,0.01317 0.78253,0.25635 0.95802,0.86476l0.00962,0.17979c0,0 0,0.25 -0.25,0.25zM208.0774,142.88058c0.0685,-0.20258 0.14944,-0.40061 0.22072,-0.60262c-0.06512,0.09277 -0.13558,0.18315 -0.20764,0.27279v0.09132h-0.03849c0.01148,0.07853 0.01964,0.15618 0.02541,0.23852z" fill="#ffeaae" stroke="none" stroke-width="0.5" stroke-linecap="butt"/><path d="M179.1875,148.4375c0,-0.13807 0.11193,-0.25 0.25,-0.25c0.13807,0 0.25,0.11193 0.25,0.25c0,0.13807 -0.11193,0.25 -0.25,0.25c-0.13807,0 -0.25,-0.11193 -0.25,-0.25z" fill="#ffda73" stroke="none" stroke-width="0.5" stroke-linecap="butt"/><path d="M200.6875,145.9375c0,-0.82843 0.67157,-1.5 1.5,-1.5c0.82843,0 1.5,0.67157 1.5,1.5c0,0.82843 -0.67157,1.5 -1.5,1.5c-0.82843,0 -1.5,-0.67157 -1.5,-1.5z" fill="#92ff73" stroke="none" stroke-width="0.5" stroke-linecap="butt"/><path d="M209.1875,141.8125c0,-0.82843 0.67157,-1.5 1.5,-1.5c0.82843,0 1.5,0.67157 1.5,1.5c0,0.82843 -0.67157,1.5 -1.5,1.5c-0.82843,0 -1.5,-0.67157 -1.5,-1.5z" fill="#92ff73" stroke="none" stroke-width="0.5" stroke-linecap="butt"/><path d="M220.4375,146.8125c0,-0.82843 0.67157,-1.5 1.5,-1.5c0.82843,0 1.5,0.67157 1.5,1.5c0,0.82843 -0.67157,1.5 -1.5,1.5c-0.82843,0 -1.5,-0.67157 -1.5,-1.5z" fill="#92ff73" stroke="none" stroke-width="0.5" stroke-linecap="butt"/><path d="M207.6875,147.1875c0,-0.82843 0.67157,-1.5 1.5,-1.5c0.82843,0 1.5,0.67157 1.5,1.5c0,0.82843 -0.67157,1.5 -1.5,1.5c-0.82843,0 -1.5,-0.67157 -1.5,-1.5z" fill="#ff7373" stroke="none" stroke-width="0.5" stroke-linecap="butt"/><path d="M221.1875,142.3125c0,-0.82843 0.67157,-1.5 1.5,-1.5c0.82843,0 1.5,0.67157 1.5,1.5c0,0.82843 -0.67157,1.5 -1.5,1.5c-0.82843,0 -1.5,-0.67157 -1.5,-1.5z" fill="#ff7373" stroke="none" stroke-width="0.5" stroke-linecap="butt"/><path d="M201.0625,142.8125c0,-0.82843 0.67157,-1.5 1.5,-1.5c0.82843,0 1.5,0.67157 1.5,1.5c0,0.82843 -0.67157,1.5 -1.5,1.5c-0.82843,0 -1.5,-0.67157 -1.5,-1.5z" fill="#73a2ff" stroke="none" stroke-width="0.5" stroke-linecap="butt"/><path d="M212.8125,147.0625c0,-0.82843 0.67157,-1.5 1.5,-1.5c0.82843,0 1.5,0.67157 1.5,1.5c0,0.82843 -0.67157,1.5 -1.5,1.5c-0.82843,0 -1.5,-0.67157 -1.5,-1.5z" fill="#73a2ff" stroke="none" stroke-width="0.5" stroke-linecap="butt"/></g></g></svg>