<svg version="1.1" xmlns="http://www.w3.org/2000/svg" xmlns:xlink="http://www.w3.org/1999/xlink" width="57.70238" height="85.09404" viewBox="0,0,57.70238,85.09404"><g transform="translate(-211.1426,-136.4441)"><g data-paper-data="{&quot;isPaintingLayer&quot;:true}" fill-rule="nonzero" stroke-linejoin="miter" stroke-miterlimit="10" stroke-dasharray="" stroke-dashoffset="0" style="mix-blend-mode: normal"><path d="M212.15919,184.78545c0,-15.37606 12.46476,-27.84081 27.84081,-27.84081c15.37606,0 27.84081,12.46476 27.84081,27.84081c0,15.37606 -12.46476,27.84081 -27.84081,27.84081c-15.37606,0 -27.84081,-12.46476 -27.84081,-27.84081z" fill="#ffe266" stroke="#000000" stroke-width="2" stroke-linecap="butt"/><path d="M212.75631,220.53814l-0.59712,-35.52876l55.68163,-1.19424l-0.14928,36.723z" fill="#ffe266" stroke="#000000" stroke-width="2" stroke-linecap="butt"/><path d="M265.00449,183.6518l-48.36688,1.13804" fill="#ff4040" stroke="#ffe266" stroke-width="2.5" stroke-linecap="round"/><path d="M213.50271,185.00938c0,-2.06113 1.67088,-3.73201 3.73201,-3.73201c2.06113,0 3.73201,1.67088 3.73201,3.73201c0,2.06113 -1.67088,3.73201 -3.73201,3.73201c-2.06113,0 -3.73201,-1.67088 -3.73201,-3.73201z" fill="#ffe266" stroke="none" stroke-width="0.5" stroke-linecap="butt"/><path d="M258.58543,185.75578c0,-2.06113 1.67088,-3.73201 3.73201,-3.73201c2.06113,0 3.73201,1.67088 3.73201,3.73201c0,2.06113 -1.67088,3.73201 -3.73201,3.73201c-2.06113,0 -3.73201,-1.67088 -3.73201,-3.73201z" fill="#ffe266" stroke="none" stroke-width="0.5" stroke-linecap="butt"/><path d="M261.56085,165.78952h-44.10561v-22.9349l11.60317,11.60316l11.3996,-11.3996l8.41399,8.41399l12.01029,-12.0103v24.1563" fill="#ffe266" stroke="#000000" stroke-width="2.5" stroke-linecap="round"/><path d="M220.78011,160.76825c0,-1.23668 1.00252,-2.23921 2.23921,-2.23921c1.23668,0 2.23921,1.00252 2.23921,2.23921c0,1.23668 -1.00252,2.23921 -2.23921,2.23921c-1.23668,0 -2.23921,-1.00252 -2.23921,-2.23921z" fill="#72ff66" stroke="none" stroke-width="0.5" stroke-linecap="butt"/><path d="M237.20096,152.21855c0,-1.23668 1.00252,-2.23921 2.23921,-2.23921c1.23668,0 2.23921,1.00252 2.23921,2.23921c0,1.23668 -1.00252,2.23921 -2.23921,2.23921c-1.23668,0 -2.23921,-1.00252 -2.23921,-2.23921z" fill="#72ff66" stroke="none" stroke-width="0.5" stroke-linecap="butt"/><path d="M248.46485,157.1041c0,-1.23668 1.00252,-2.23921 2.23921,-2.23921c1.23668,0 2.23921,1.00252 2.23921,2.23921c0,1.23668 -1.00252,2.23921 -2.23921,2.23921c-1.23668,0 -2.23921,-1.00252 -2.23921,-2.23921z" fill="#72ff66" stroke="none" stroke-width="0.5" stroke-linecap="butt"/><path d="M221.32295,156.56126c0,-1.23668 1.00252,-2.23921 2.23921,-2.23921c1.23668,0 2.23921,1.00252 2.23921,2.23921c0,1.23668 -1.00252,2.23921 -2.23921,2.23921c-1.23668,0 -2.23921,-1.00252 -2.23921,-2.23921z" fill="#667dff" stroke="none" stroke-width="0.5" stroke-linecap="butt"/><path d="M233.80822,159.954c0,-1.23668 1.00252,-2.23921 2.23921,-2.23921c1.23668,0 2.23921,1.00252 2.23921,2.23921c0,1.23668 -1.00252,2.23921 -2.23921,2.23921c-1.23668,0 -2.23921,-1.00252 -2.23921,-2.23921z" fill="#667dff" stroke="none" stroke-width="0.5" stroke-linecap="butt"/><path d="M252.26472,160.76825c0,-1.23668 1.00252,-2.23921 2.23921,-2.23921c1.23668,0 2.23921,1.00252 2.23921,2.23921c0,1.23668 -1.00252,2.23921 -2.23921,2.23921c-1.23668,0 -2.23921,-1.00252 -2.23921,-2.23921z" fill="#667dff" stroke="none" stroke-width="0.5" stroke-linecap="butt"/><path d="M232.04399,155.6113c0,-1.23668 1.00252,-2.23921 2.23921,-2.23921c1.23668,0 2.23921,1.00252 2.23921,2.23921c0,1.23668 -1.00252,2.23921 -2.23921,2.23921c-1.23668,0 -2.23921,-1.00252 -2.23921,-2.23921z" fill="#ff66e7" stroke="none" stroke-width="0.5" stroke-linecap="butt"/><path d="M215.80427,186.21512l48.36688,-1.13804" fill="none" stroke="#ffe266" stroke-width="4.5" stroke-linecap="round"/><path d="M241.81509,160.22542c0,-1.23668 1.00252,-2.23921 2.23921,-2.23921c1.23668,0 2.23921,1.00252 2.23921,2.23921c0,1.23668 -1.00252,2.23921 -2.23921,2.23921c-1.23668,0 -2.23921,-1.00252 -2.23921,-2.23921z" fill="#ff66e7" stroke="none" stroke-width="0.5" stroke-linecap="butt"/><g stroke-linecap="butt"><path d="M221.56383,180.56925c0,-3.67929 2.98265,-6.66193 6.66193,-6.66193c3.67929,0 6.66193,2.98265 6.66193,6.66193c0,3.67929 -2.98265,6.66193 -6.66193,6.66193c-3.67929,0 -6.66193,-2.98264 -6.66193,-6.66193z" fill="#000000" stroke="#000000" stroke-width="NaN"/><path d="M225.92855,177.69774c0,-1.96652 1.59417,-3.56068 3.56068,-3.56068c1.96652,0 3.56068,1.59417 3.56068,3.56068c0,1.96652 -1.59417,3.56068 -3.56068,3.56068c-1.96652,0 -3.56068,-1.59417 -3.56068,-3.56068z" fill="#ffffff" stroke="none" stroke-width="0"/><path d="M258.28684,181.25842c0,3.67927 -2.98265,6.66193 -6.66193,6.66193c-3.67927,0 -6.66193,-2.98265 -6.66193,-6.66193c0,-3.67927 2.98265,-6.66193 6.66193,-6.66193c3.67927,0 6.66193,2.98265 6.66193,6.66193z" data-paper-data="{&quot;index&quot;:null}" fill="#000000" stroke="#000000" stroke-width="NaN"/><path d="M253.92213,184.12993c0,1.96652 -1.59417,3.56068 -3.56068,3.56068c-1.96652,0 -3.56068,-1.59418 -3.56068,-3.56068c0,-1.96652 1.59418,-3.56068 3.56068,-3.56068c1.96652,0 3.56068,1.59417 3.56068,3.56068z" data-paper-data="{&quot;index&quot;:null}" fill="#ffffff" stroke="none" stroke-width="0"/></g><path d="M231.16188,191.1672h16.9637" fill="none" stroke="#000000" stroke-width="3.5" stroke-linecap="round"/></g></g></svg>