<svg version="1.1" xmlns="http://www.w3.org/2000/svg" xmlns:xlink="http://www.w3.org/1999/xlink" width="57.70238" height="84.16199" viewBox="0,0,57.70238,84.16199"><g transform="translate(-211.14261,-141.83334)"><g data-paper-data="{&quot;isPaintingLayer&quot;:true}" fill-rule="nonzero" stroke-linejoin="miter" stroke-miterlimit="10" stroke-dasharray="" stroke-dashoffset="0" style="mix-blend-mode: normal"><g stroke="none" stroke-linecap="butt"><path d="M228.51421,175.33525c4.48253,-0.50409 9.08324,-0.20528 13.51812,-0.98281c5.18324,-0.90873 10.18138,-2.43753 15.46766,-2.65876c0,-0.38173 0,-0.74552 0,-0.94367c0.0132,-1.66438 -0.64471,-2.31158 -0.97277,-3.90717c-0.29252,-1.4227 0.10457,-3.03285 -0.02218,-4.48057c-0.08572,-0.97911 -0.81931,-1.79255 -1.11208,-2.73078c-0.78198,-2.50595 0.14697,-4.94165 -0.95382,-7.54481c-0.92009,-2.17583 -2.81625,-2.63326 -4.18254,-4.41125c-0.40114,-0.52201 -0.88939,-1.25644 -1.08506,-1.9223c-0.4838,0.20465 -0.96921,0.40712 -1.39679,0.70491c-1.74344,1.21425 -2.48418,3.53708 -3.08785,5.77974c0.03669,0.18864 0.06955,0.38758 0.09923,0.59858l0.20953,0.01746l-0.16568,1.98822c-0.0471,0.64739 -0.58725,1.15797 -1.24666,1.15797c-0.69036,0 -1.25,-0.55964 -1.25,-1.25v-1.4687c-0.15963,-2.98809 -3.09211,-2.9536 -4.21532,-5.33444c-0.23056,-0.48872 -0.3495,-1.03776 -0.37442,-1.59461c-1.02902,0.7458 -2.35518,1.35331 -2.61881,2.55192c-0.33984,1.54509 0.22033,3.5308 -0.30584,5.03494c-0.01288,0.03681 -0.02622,0.0734 -0.03999,0.1098l0.01705,0.00427l-0.49365,1.97463c-0.12633,0.55665 -0.62414,0.9722 -1.21902,0.9722c-0.64351,0 -1.17345,-0.48628 -1.24241,-1.11141l-0.12966,-1.03728c-1.75047,-1.87889 -3.34195,-3.54774 -4.56337,-5.84482c-0.264,-0.4965 -0.624,-0.90293 -0.86552,-1.28726c-1.46047,1.36761 -3.76441,2.79373 -3.61727,4.30183c0.26606,2.73827 2.31912,5.56874 1.61704,8.24963c-0.79583,3.03884 -4.12463,6.10661 -3.31559,9.52545c0.53716,2.26997 1.63664,3.63494 2.07409,5.53719c1.82452,-0.00003 3.64904,-0.00027 5.47356,0.00191zM260,172.91667c0,0.43412 -0.15077,0.71748 -0.34758,0.90242c-0.18495,0.19681 -0.4683,0.34758 -0.90242,0.34758c-0.00099,0 -0.00197,0 -0.00296,0c-5.60375,-0.00412 -10.83355,1.70753 -16.27938,2.64757c-4.53959,0.78361 -9.22998,0.51334 -13.81521,1.01719c-1.823,0.00201 -3.646,0.00194 -5.469,0.00191c-0.00771,0.0784 -0.01651,0.15784 -0.02644,0.23837c0,0 -0.15505,1.24035 -1.39539,1.08531c-1.24034,-0.15505 -1.08531,-1.39539 -1.08531,-1.39539c0.4671,-3.67975 -2.34223,-5.72041 -2.17441,-9.41408c0.10163,-2.23691 1.17804,-4.3008 2.11765,-6.29769c0.39106,-0.8311 1.63529,-2.38765 1.39986,-3.41371c-0.50794,-2.21373 -1.60815,-4.1142 -1.8512,-6.49054c0.15959,-3.47935 2.58328,-3.70491 4.49845,-6.0369c0,-0.3938 0,-1.02536 0,-1.02536c0,-0.69036 0.55964,-1.25 1.25,-1.25c0.38936,0 0.73714,0.17801 0.96639,0.4571l0.82722,0.99267l-0.22407,0.18673c1.81272,1.71617 3.34905,3.9729 4.84379,6.08981c-0.04621,-1.83157 0.43264,-3.9049 1.27532,-4.92142c0.88797,-1.07116 2.19859,-1.73007 3.12079,-2.77191c0.50122,-0.56625 0.55897,-1.82834 1.31491,-1.84871c0.93681,-0.02525 1.70738,0.95508 2.19718,1.75405c0.54323,0.88612 -0.27213,2.1623 0.1438,3.11482c0.28453,0.65161 1.18719,0.79296 1.71094,1.27383c0.3192,0.29307 0.60189,0.56229 0.85261,0.82045c0.76723,-1.88009 2.26774,-3.7492 3.44636,-4.60544c0.75509,-0.54855 1.77761,-0.65749 2.51995,-1.2216l0.95427,-0.95426c0.2262,-0.2262 0.5387,-0.36612 0.88388,-0.36612c0.69036,0 1.25,0.55964 1.25,1.25c0,0.11436 -0.01535,0.22512 -0.04412,0.33036l-0.32654,1.30614l-0.02977,-0.00744c0.0418,0.21751 0.09653,0.43204 0.16961,0.64232c0.81901,2.3565 3.87282,3.21948 4.95833,5.72529c0.22911,0.52887 1.00085,2.88992 1.09645,3.68393c0.13549,1.12542 -0.43275,3.05644 -0.05026,4.10459c0.39878,1.0928 1.08464,2.11398 1.22125,3.26922c0.15699,1.32762 -0.30335,2.88976 -0.02218,4.1861c0.35299,1.62748 1.01609,2.65824 1.02723,4.42615c0,0.44445 0,0.88889 0,1.33334z" fill="#000000" stroke-width="0.5"/><path d="M223.00379,175.20045c-0.43744,-1.90225 -1.54464,-3.27836 -2.0818,-5.54833c-0.80903,-3.41884 2.51434,-6.51018 3.31017,-9.54902c0.70209,-2.68089 -1.3454,-5.53339 -1.61147,-8.27165c-0.14713,-1.5081 2.16579,-2.94655 3.62626,-4.31416c0.24152,0.38433 0.67303,0.86065 0.93703,1.35715c1.22142,2.29708 2.81656,3.96164 4.56704,5.84053l0.13212,1.03376c0.06895,0.62514 0.51348,1.05944 1.15699,1.05944c0.59488,0 1.09925,-0.4244 1.22558,-0.98104l0.50237,-1.98209l-0.01712,-0.00422c0.01378,-0.03639 0.02761,-0.07333 0.04049,-0.11014c0.52617,-1.50414 -0.02291,-3.49532 0.31694,-5.04041c0.26363,-1.19861 1.6012,-1.80864 2.63022,-2.55444c0.02491,0.55685 0.1447,1.10582 0.37526,1.59453c1.12321,2.38084 4.07982,2.35033 4.23944,5.33842l0.004,1.47066c0,0.69036 0.57052,1.25802 1.26087,1.25802c0.6594,0 1.1295,-0.43923 1.17661,-1.08662l0.17072,-1.98385l-0.20878,-0.01691c-0.02968,-0.21101 -0.06077,-0.40871 -0.09746,-0.59734c0.60368,-2.24266 1.39814,-4.64982 3.14158,-5.86407c0.42758,-0.2978 0.91493,-0.49902 1.39874,-0.70367c0.19567,0.66586 0.68855,1.40384 1.08969,1.92584c1.36629,1.77799 3.27355,2.24908 4.19364,4.42491c1.10079,2.60316 0.17802,5.06028 0.96,7.56623c0.29277,0.93823 1.02617,1.7597 1.11189,2.7388c0.12675,1.44772 -0.27307,3.06972 0.01945,4.49241c0.32806,1.5956 0.98266,2.25007 0.96945,3.91445c0,0.19815 -0.00096,0.56359 -0.00096,0.94532c-5.28629,0.22124 -10.31699,1.77301 -15.50023,2.68174c-4.43489,0.77753 -9.07497,0.47034 -13.5575,0.97442c-1.82452,-0.00218 -3.65667,-0.00872 -5.48119,-0.00869z" data-paper-data="{&quot;noHover&quot;:false,&quot;origItem&quot;:[&quot;Path&quot;,{&quot;applyMatrix&quot;:true,&quot;segments&quot;:[[[453.02842,335.67049],[-3.64904,-0.00437],[8.96506,-1.00817]],[[480.06467,333.70486],[-8.86977,1.55506],[10.36648,-1.81746]],[[511,328.38733],[-10.57258,0.44247],[0,-0.76346]],[[511,326.5],[0,0.39629],[0.02641,-3.32876]],[[509.05446,318.68565],[0.65613,3.19119],[-0.58504,-2.84539]],[[509.0101,309.72451],[0.25351,2.89544],[-0.17145,-1.95821]],[[506.78593,304.26294],[0.58554,1.87646],[-1.56395,-5.0119]],[[504.8783,289.17332],[2.20158,5.20632],[-1.84017,-4.35165]],[[496.51323,280.35082],[2.73257,3.55597],[-0.80227,-1.04401]],[[494.34311,276.50621],[0.39134,1.33173],[-0.96761,0.4093]],[[491.54953,277.91604],[0.85516,-0.59559],[-3.48688,2.4285]],[[485.37382,289.47552],[1.20735,-4.48532],[0.07337,0.37727]],[[485.57229,290.67269],[-0.05936,-0.42201],[0,0]],[485.99136,290.70761],[[485.65999,294.68405],[0,0],[-0.09421,1.29477]],[[483.16667,297],[1.31881,0],[-1.38071,0]],[[480.66667,294.5],[0,1.38071],[0,0]],[[480.66667,291.56259],[0,0],[-0.31925,-5.97618]],[[472.23603,280.89372],[2.24643,4.76168],[-0.46112,-0.97743]],[[471.4872,277.7045],[0.04983,1.11369],[-2.05804,1.4916]],[[466.24958,282.80834],[0.52727,-2.39723],[-0.67968,3.09018]],[[465.63789,292.87821],[1.05235,-3.00828],[-0.02575,0.07362]],[[465.55791,293.09781],[0.02755,-0.07279],[0,0]],[465.59202,293.10634],[[464.60471,297.0556],[0,0],[-0.25265,1.1133]],[[462.16667,299],[1.18975,0],[-1.28702,0]],[[459.68186,296.77718],[0.13791,1.25027],[0,0]],[[459.42254,294.70262],[0,0],[-3.50095,-3.75779]],[[450.29581,283.01298],[2.44284,4.59415],[-0.528,-0.99299]],[[448.56477,280.43846],[0.48305,0.76866],[-2.92094,2.73522]],[[441.33023,289.04213],[-0.29427,-3.0162],[0.53213,5.47653]],[[444.5643,305.54139],[1.40417,-5.36179],[-1.59165,6.07768]],[[437.93312,324.59228],[-1.61807,-6.83768],[1.07433,4.53994]],[[442.08129,335.66666],[-0.87489,-3.8045],[3.64905,-0.00006]]],&quot;closed&quot;:true}]}" fill="#ff4040" stroke-width="0.5"/><path d="M245.196,169.71094c-1.14203,-1.06455 -3.4363,-0.51845 -4.77257,-0.0907c-1.92494,0.38292 -3.88152,0.81779 -5.82631,1.08282c-1.56725,0.177 -3.03811,-0.23936 -4.61483,-0.06134c-0.10456,0.01181 -0.20911,0.02362 -0.31367,0.03542l-0.05909,-0.07982c-0.08079,0.02924 -0.1676,0.05055 -0.26049,0.06295c0,0 -0.14377,0.01623 -0.16,-0.12753c-0.01623,-0.14377 0.12753,-0.16 0.12753,-0.16c0.61065,-0.05164 0.67508,-0.95275 0.75311,-1.43963c0.17287,-1.07846 -0.19983,-1.61045 -1.31459,-1.70805c-2.11922,-0.77371 -0.17106,-3.67803 0.36195,-4.9518c0.10453,-0.41819 -0.32143,-0.80447 -0.41098,-1.22613c-0.27663,-1.30243 -0.05809,-2.76682 0.59736,-3.92593c0.15316,-0.26915 0.4492,-0.87359 0.71196,-1.05241c0.35159,-0.23928 0.7782,0.24501 0.97788,0.4595c0.74206,0.79708 1.47519,1.07948 1.60602,2.23982c0.03907,0.62289 -0.24803,2.05628 0.0685,2.58018c0.33518,0.55476 2.0239,0.08137 2.53956,0.06616c0.42323,0.50558 0.692,0.85485 0.82024,1.50215c0.07391,0.3731 -0.18127,1.20323 0.19093,1.12496c0.77368,-0.16272 1.46335,-1.15254 1.93097,-1.71443c0.53099,-0.80779 1.89168,-4.73213 0.10033,-4.40154c-0.67955,0.12277 -2.06701,0.48327 -2.6699,-0.03759c-0.78083,-0.67457 1.47173,-1.88137 1.90751,-2.07273c0.69878,-0.30589 1.57854,-0.39201 2.1601,-0.88241c0.23449,-0.19774 0.46078,-0.6852 0.83451,-0.5814c0.64201,0.1783 1.09346,0.69747 1.8045,0.81441c1.12971,0.21774 0.81585,1.45765 0.48141,2.28578c-0.09457,0.23419 -0.5673,0.52875 -0.35686,0.66839c0.58315,0.38695 1.33891,0.58469 1.99206,0.82586c1.37528,0.85206 -0.04335,1.86192 -0.17849,2.92894c-0.04546,0.35889 1.50124,0.32113 1.65436,-0.00742c0.99737,-1.72688 -0.21431,-3.92239 -1.06804,-5.37699c-1.35805,-2.3158 0.76164,-2.91706 2.58366,-3.08549c0.45059,0.16094 1.62331,-0.07288 1.95386,0.24539c0.81919,0.78877 0.04728,2.97931 -0.05526,3.90557c-0.08443,0.35211 -0.70681,2.04025 -0.43866,2.32054c0.93324,0.97552 1.82376,0.33167 1.68923,2.17336c-0.06994,0.95681 -0.46555,1.75096 -0.59703,2.67249c-0.12967,0.90872 0.34472,1.86722 0.19187,2.83388c-0.16198,1.04046 -0.59175,2.04172 -0.47226,3.10005l-0.04611,0.09855c-0.00639,0.0565 -0.04193,0.08672 -0.07392,0.10265c-0.02188,0.01338 -0.05098,0.02438 -0.08461,0.02042c-1.7162,0.19045 -2.96084,0.04722 -4.26569,-1.16685z" fill="#ffc140" stroke-width="0"/><path d="M246.8245,174.32508c-1.14203,-1.06453 -3.4363,-0.51845 -4.77257,-0.0907c-1.92494,0.38293 -3.88152,0.81777 -5.82631,1.08282c-1.56725,0.177 -3.03811,-0.23936 -4.61483,-0.06134c-0.10456,0.01181 -0.20911,0.02362 -0.31367,0.03542l-0.05909,-0.07982c-0.08079,0.02924 -0.1676,0.05053 -0.26049,0.06295c0,0 -0.14377,0.01623 -0.16001,-0.12753c-0.01623,-0.14377 0.12755,-0.16 0.12755,-0.16c0.61065,-0.05164 0.67506,-0.95275 0.75311,-1.43962c0.17287,-1.07845 -0.19983,-1.61045 -1.31461,-1.70805c-2.11922,-0.77369 -0.17106,-3.67803 0.36196,-4.95181c0.10453,-0.41819 -0.32145,-0.80447 -0.411,-1.22613c-0.27663,-1.30243 -0.05809,-2.76682 0.59738,-3.92593c0.15316,-0.26917 0.4492,-0.8736 0.71196,-1.05241c0.35159,-0.23927 0.77821,0.24503 0.97788,0.4595c0.74206,0.79707 1.47519,1.07948 1.60602,2.23982c0.03905,0.62289 -0.24803,2.05628 0.06849,2.58018c0.33518,0.55476 2.0239,0.08136 2.53956,0.06615c0.42323,0.50558 0.692,0.85485 0.82024,1.50215c0.07392,0.3731 -0.18129,1.20325 0.19093,1.12496c0.77368,-0.16272 1.46335,-1.15255 1.93097,-1.71444c0.53099,-0.80779 1.89168,-4.73213 0.10033,-4.40154c-0.67955,0.12278 -2.067,0.48327 -2.66988,-0.03759c-0.78081,-0.67458 1.47173,-1.88137 1.90749,-2.07273c0.69878,-0.30588 1.57854,-0.39201 2.16009,-0.88243c0.23449,-0.19774 0.46078,-0.6852 0.83451,-0.5814c0.64201,0.1783 1.09348,0.69745 1.8045,0.81441c1.12971,0.21774 0.81585,1.45765 0.48141,2.28578c-0.09458,0.23419 -0.5673,0.52875 -0.35686,0.66839c0.58316,0.38695 1.33891,0.58469 1.99206,0.82586c1.37529,0.85206 -0.04335,1.8619 -0.17849,2.92894c-0.04544,0.35889 1.50124,0.32113 1.65436,-0.00742c0.99737,-1.72686 -0.21429,-3.92239 -1.06803,-5.37699c-1.35806,-2.3158 0.76163,-2.91706 2.58366,-3.08549c0.45059,0.16094 1.62331,-0.07288 1.95384,0.24539c0.81919,0.78877 0.04728,2.97933 -0.05526,3.90557c-0.08445,0.35211 -0.70681,2.04025 -0.43866,2.32054c0.93324,0.9755 1.82376,0.33167 1.68923,2.17336c-0.06992,0.95681 -0.46553,1.75094 -0.59703,2.67248c-0.12967,0.90872 0.34472,1.86722 0.19187,2.83387c-0.162,1.04046 -0.59175,2.04172 -0.47225,3.10005l-0.04611,0.09854c-0.00639,0.0565 -0.04193,0.08673 -0.07392,0.10265c-0.02188,0.01338 -0.05098,0.02438 -0.08461,0.02044c-1.7162,0.19047 -2.96086,0.0472 -4.26569,-1.16687z" fill="#ffe8b8" stroke-width="0"/></g><path d="M212.15919,189.24266c0,-15.37606 12.46476,-27.84081 27.84081,-27.84081c15.37606,0 27.84081,12.46476 27.84081,27.84081c0,15.37606 -12.46476,27.84081 -27.84081,27.84081c-15.37606,0 -27.84081,-12.46476 -27.84081,-27.84081z" fill="#ff4040" stroke="#000000" stroke-width="2" stroke-linecap="butt"/><path d="M212.75631,224.99534l-0.59712,-35.52876l55.68163,-1.19424l-0.14928,36.723z" fill="#ff4040" stroke="#000000" stroke-width="2" stroke-linecap="butt"/><path d="M216.63761,189.24705l48.36688,-1.13804" fill="#ff4040" stroke="#ff4040" stroke-width="2.5" stroke-linecap="round"/><path d="M213.50272,189.46657c0,-2.06113 1.67088,-3.73201 3.73201,-3.73201c2.06113,0 3.73201,1.67088 3.73201,3.73201c0,2.06113 -1.67088,3.73201 -3.73201,3.73201c-2.06113,0 -3.73201,-1.67088 -3.73201,-3.73201z" fill="#ff4040" stroke="none" stroke-width="0.5" stroke-linecap="butt"/><path d="M215.80427,189.88179l48.36688,-1.13804" fill="none" stroke="#ff4040" stroke-width="4.5" stroke-linecap="round"/><path d="M258.58543,190.21298c0,-2.06113 1.67088,-3.73201 3.73201,-3.73201c2.06113,0 3.73201,1.67088 3.73201,3.73201c0,2.06113 -1.67088,3.73201 -3.73201,3.73201c-2.06113,0 -3.73201,-1.67088 -3.73201,-3.73201z" fill="#ff4040" stroke="none" stroke-width="0.5" stroke-linecap="butt"/><path d="M222.31027,184.7279c0,-3.67929 2.98265,-6.66193 6.66193,-6.66193c3.67929,0 6.66193,2.98265 6.66193,6.66193c0,3.67929 -2.98265,6.66193 -6.66193,6.66193c-3.67929,0 -6.66193,-2.98264 -6.66193,-6.66193z" fill="#000000" stroke="#000000" stroke-width="NaN" stroke-linecap="butt"/><path d="M252.37135,178.75514c3.67927,0 6.66193,2.98265 6.66193,6.66193c0,3.67927 -2.98265,6.66193 -6.66193,6.66193c-3.67927,0 -6.66193,-2.98265 -6.66193,-6.66193c0,-3.67927 2.98265,-6.66193 6.66193,-6.66193z" data-paper-data="{&quot;index&quot;:null}" fill="#000000" stroke="#000000" stroke-width="NaN" stroke-linecap="butt"/><path d="M227.09399,184.66387c0,-1.14206 0.92582,-2.06788 2.06788,-2.06788c1.14206,0 2.06788,0.92582 2.06788,2.06788c0,1.14206 -0.92582,2.06788 -2.06788,2.06788c-1.14206,0 -2.06788,-0.92581 -2.06788,-2.06788z" fill="#ffffff" stroke="none" stroke-width="0" stroke-linecap="butt"/><path d="M252.19636,187.70716c-1.14206,0 -2.06788,-0.92581 -2.06788,-2.06788c0,-1.14206 0.92582,-2.06788 2.06788,-2.06788c1.14206,0 2.06788,0.92582 2.06788,2.06788c0,1.14206 -0.92581,2.06788 -2.06788,2.06788z" data-paper-data="{&quot;index&quot;:null}" fill="#ffffff" stroke="none" stroke-width="0" stroke-linecap="butt"/></g></g></svg>