<svg version="1.1" xmlns="http://www.w3.org/2000/svg" xmlns:xlink="http://www.w3.org/1999/xlink" width="57.70238" height="65.59349" viewBox="0,0,57.70238,65.59349"><g transform="translate(-211.1426,-147.20326)"><g data-paper-data="{&quot;isPaintingLayer&quot;:true}" fill-rule="nonzero" stroke-linejoin="miter" stroke-miterlimit="10" stroke-dasharray="" stroke-dashoffset="0" style="mix-blend-mode: normal"><path d="M212.15919,176.04407c0,-15.37606 12.46476,-27.84081 27.84081,-27.84081c15.37606,0 27.84081,12.46476 27.84081,27.84081c0,15.37606 -12.46476,27.84081 -27.84081,27.84081c-15.37606,0 -27.84081,-12.46476 -27.84081,-27.84081z" fill="#66ff71" stroke="#000000" stroke-width="2" stroke-linecap="butt"/><path d="M212.75631,211.79675l-0.59712,-35.52876l55.68163,-1.19424l-0.14928,36.723z" fill="#66ff71" stroke="#000000" stroke-width="2" stroke-linecap="butt"/><path d="M216.6376,176.38179l48.36688,-1.13804" fill="none" stroke="#66ff71" stroke-width="4.5" stroke-linecap="round"/><path d="M213.16938,175.93465c0,-2.06113 1.67088,-3.73201 3.73201,-3.73201c2.06113,0 3.73201,1.67088 3.73201,3.73201c0,2.06113 -1.67088,3.73201 -3.73201,3.73201c-2.06113,0 -3.73201,-1.67088 -3.73201,-3.73201z" fill="#66ff71" stroke="none" stroke-width="0.5" stroke-linecap="butt"/><path d="M258.58542,177.01439c0,-2.06113 1.67088,-3.73201 3.73201,-3.73201c2.06113,0 3.73201,1.67088 3.73201,3.73201c0,2.06113 -1.67088,3.73201 -3.73201,3.73201c-2.06113,0 -3.73201,-1.67088 -3.73201,-3.73201z" fill="#66ff71" stroke="none" stroke-width="0.5" stroke-linecap="butt"/><g stroke-linecap="butt"><path d="M221.56386,171.82786c0,-3.67929 2.98265,-6.66193 6.66193,-6.66193c3.67929,0 6.66193,2.98265 6.66193,6.66193c0,3.67929 -2.98265,6.66193 -6.66193,6.66193c-3.67929,0 -6.66193,-2.98264 -6.66193,-6.66193z" fill="#000000" stroke="#000000" stroke-width="NaN"/><path d="M225.92858,168.95634c0,-1.96652 1.59417,-3.56068 3.56068,-3.56068c1.96652,0 3.56068,1.59417 3.56068,3.56068c0,1.96652 -1.59417,3.56068 -3.56068,3.56068c-1.96652,0 -3.56068,-1.59417 -3.56068,-3.56068z" fill="#ffffff" stroke="none" stroke-width="0"/><path d="M258.28685,172.51703c0,3.67927 -2.98265,6.66193 -6.66193,6.66193c-3.67927,0 -6.66193,-2.98265 -6.66193,-6.66193c0,-3.67927 2.98265,-6.66193 6.66193,-6.66193c3.67927,0 6.66193,2.98265 6.66193,6.66193z" data-paper-data="{&quot;index&quot;:null}" fill="#000000" stroke="#000000" stroke-width="NaN"/><path d="M253.92215,175.38854c0,1.96652 -1.59417,3.56068 -3.56068,3.56068c-1.96652,0 -3.56068,-1.59418 -3.56068,-3.56068c0,-1.96652 1.59418,-3.56068 3.56068,-3.56068c1.96652,0 3.56068,1.59417 3.56068,3.56068z" data-paper-data="{&quot;index&quot;:null}" fill="#ffffff" stroke="none" stroke-width="0"/></g><path d="M241.56745,180.14928c1.1196,0 1.1196,1.1196 1.1196,1.1196v0.29856c-0.0761,3.30952 -4.05404,5.7636 -7.07034,3.39015c-0.05291,-0.04162 -1.45102,-2.85209 -1.46973,-2.88946c0,0 -0.5007,-1.0014 0.5007,-1.50211c1.0014,-0.5007 1.50211,0.5007 1.50211,0.5007c0.35329,0.7071 0.33752,1.65042 0.91876,2.18609c1.41267,1.30194 3.43197,-0.20174 3.37929,-1.68538v-0.29856c0,0 0,-1.1196 1.1196,-1.1196z" fill="#000000" stroke="none" stroke-width="0.5" stroke-linecap="butt"/><g stroke-linecap="butt"><path d="M250.37499,210.52786c0,0 0,-10.65615 0,-13.13668c0,-0.98022 0.83007,-2.05135 1.64209,-2.05135c2.33219,0 13.54595,0 13.54595,0v15.18804z" fill="#e8ba85" stroke="#000000" stroke-width="2"/><path d="M253.462,195.09287c0,0 0,-9.85359 0,-12.03262c0,-0.81267 1.03251,-1.67364 1.83926,-1.67364c0.75826,0 2.4003,0 3.88129,0c1.54968,0 2.92305,1.13101 2.92305,2.12149c0,2.31453 0,11.58478 0,11.58478z" fill="#51cb59" stroke="#000000" stroke-width="2"/><path d="M256.11681,184.84405c0,-0.17049 0.13822,-0.3087 0.3087,-0.3087c0.17049,0 0.3087,0.13822 0.3087,0.3087c0,0.17049 -0.13822,0.3087 -0.3087,0.3087c-0.17049,0 -0.3087,-0.13822 -0.3087,-0.3087z" fill="#000000" stroke="none" stroke-width="0.5"/><path d="M259.69773,187.19016c0,-0.17049 0.13822,-0.3087 0.3087,-0.3087c0.17049,0 0.3087,0.13822 0.3087,0.3087c0,0.17049 -0.13822,0.3087 -0.3087,0.3087c-0.17049,0 -0.3087,-0.13822 -0.3087,-0.3087z" fill="#000000" stroke="none" stroke-width="0.5"/><path d="M255.62289,189.16584c0,-0.17049 0.13822,-0.3087 0.30871,-0.3087c0.17049,0 0.3087,0.13822 0.3087,0.3087c0,0.17049 -0.13822,0.30871 -0.3087,0.30871c-0.17049,0 -0.30871,-0.13822 -0.30871,-0.30871z" fill="#000000" stroke="none" stroke-width="0.5"/><path d="M258.46291,192.87023c0,-0.17049 0.13822,-0.3087 0.3087,-0.3087c0.17049,0 0.3087,0.13822 0.3087,0.3087c0,0.17049 -0.13822,0.30871 -0.3087,0.30871c-0.17049,0 -0.3087,-0.13822 -0.3087,-0.30871z" fill="#000000" stroke="none" stroke-width="0.5"/><path d="M257.72204,187.31363c0,-0.17049 0.13822,-0.3087 0.3087,-0.3087c0.17049,0 0.30871,0.13822 0.30871,0.3087c0,0.17049 -0.13822,0.3087 -0.30871,0.3087c-0.17049,0 -0.3087,-0.13822 -0.3087,-0.3087z" fill="#000000" stroke="none" stroke-width="0.5"/><path d="M256.11681,193.11719c0,-0.17049 0.13822,-0.30871 0.3087,-0.30871c0.17049,0 0.3087,0.13822 0.3087,0.30871c0,0.17049 -0.13822,0.3087 -0.3087,0.3087c-0.17049,0 -0.3087,-0.13822 -0.3087,-0.3087z" fill="#000000" stroke="none" stroke-width="0.5"/></g></g></g></svg>