<svg version="1.1" xmlns="http://www.w3.org/2000/svg" xmlns:xlink="http://www.w3.org/1999/xlink" width="57.70238" height="90.79225" viewBox="0,0,57.70238,90.79225"><g transform="translate(-210.68276,-124.40244)"><g data-paper-data="{&quot;isPaintingLayer&quot;:true}" fill-rule="nonzero" stroke-linejoin="miter" stroke-miterlimit="10" stroke-dasharray="" stroke-dashoffset="0" style="mix-blend-mode: normal"><path d="M221.4714,155.42225c3.04005,-4.77722 5.79131,-9.43186 8.44014,-14.25974c0.04159,-0.34495 0.17843,-0.5991 0.17843,-0.5991c1.89728,-3.52321 4.02002,-6.98405 5.52274,-10.69835c0.11737,-0.72803 0.07333,-1.43024 -0.22029,-2.07187c0,0 -0.55441,-1.38604 0.83161,-1.94046c0.48019,-0.19208 0.86057,-0.15125 1.15265,-0.01584c0.03064,-0.79741 0.68678,-1.43445 1.49169,-1.43445c0.57624,0 1.07622,0.32649 1.32504,0.8046l0.88116,1.61547l-0.24175,0.13186c5.1628,6.37117 7.4613,15.1362 12.36901,21.78421c1.12905,1.52943 7.11574,6.23974 6.00803,8.32136c-0.11256,0.21151 -0.27024,0.37401 -0.45886,0.50287c0.0158,0.0136 0.03161,0.02716 0.04746,0.04073c0,0 1.13341,0.97151 0.16191,2.10492c-0.97151,1.13341 -2.10492,0.16191 -2.10492,0.16191c-0.87089,-0.74707 -1.66495,-1.51823 -2.39636,-2.31006c-0.24318,-0.09079 -0.48819,-0.16628 -0.7348,-0.22771c-0.59285,0.23482 -1.15654,-0.06588 -1.36883,-0.20386c-3.621,-0.20468 -7.48239,2.02057 -10.88158,2.90607c-5.66834,1.47663 -12.1826,0.19493 -17.98145,0.19493h-0.83784c-0.39442,0.21374 -0.99973,0.34733 -1.64674,-0.22779c-0.43842,-0.38971 -0.55143,-0.79856 -0.52708,-1.15134c-0.17167,-0.24313 -0.27251,-0.53981 -0.27251,-0.86008c0,-0.28347 0.079,-0.54848 0.21622,-0.77423l1.03209,-1.76932l0.0095,0.00554z" fill="#8ad2ff" stroke="none" stroke-width="0.5" stroke-linecap="butt"/><path d="M211.69934,178.44201c0,-15.37606 12.46476,-27.84081 27.84081,-27.84081c15.37605,0 27.84081,12.46476 27.84081,27.84081c0,15.37606 -12.46476,27.84082 -27.84081,27.84082c-15.37606,0 -27.84081,-12.46476 -27.84081,-27.84082z" fill="#009cff" stroke="#000000" stroke-width="2" stroke-linecap="butt"/><path d="M212.29646,214.19469l-0.59712,-35.52876l55.68163,-1.19424l-0.14928,36.723z" fill="#009cff" stroke="#000000" stroke-width="2" stroke-linecap="butt"/><path d="M216.17775,178.4464l48.36689,-1.13804" fill="#009cff" stroke="#009cff" stroke-width="2.5" stroke-linecap="round"/><path d="M213.04286,178.66593c0,-2.06113 1.67088,-3.73201 3.73201,-3.73201c2.06113,0 3.73201,1.67088 3.73201,3.73201c0,2.06113 -1.67088,3.73201 -3.73201,3.73201c-2.06113,0 -3.73201,-1.67088 -3.73201,-3.73201z" fill="#009cff" stroke="none" stroke-width="0.5" stroke-linecap="butt"/><path d="M258.12557,179.41233c0,-2.06113 1.67088,-3.73202 3.73202,-3.73202c2.06113,0 3.73201,1.67089 3.73201,3.73202c0,2.06113 -1.67088,3.73201 -3.73201,3.73201c-2.06113,0 -3.73202,-1.67088 -3.73202,-3.73201z" fill="#009cff" stroke="none" stroke-width="0.5" stroke-linecap="butt"/><path d="M215.80427,179.21512l48.36688,-1.13804" fill="none" stroke="#009cff" stroke-width="4.5" stroke-linecap="round"/><path d="M221.85041,173.92724c0,-3.67928 2.98266,-6.66192 6.66193,-6.66192c3.67928,0 6.66192,2.98265 6.66192,6.66192c0,3.67928 -2.98265,6.66192 -6.66192,6.66192c-3.67928,0 -6.66193,-2.98264 -6.66193,-6.66192z" fill="#000000" stroke="#000000" stroke-width="NaN" stroke-linecap="butt"/><path d="M223.82664,177.02695c0,-1.96651 1.59417,-3.56069 3.56068,-3.56069c1.96651,0 3.56069,1.59417 3.56069,3.56069c0,1.96651 -1.59417,3.56069 -3.56069,3.56069c-1.96651,0 -3.56068,-1.59417 -3.56068,-3.56069z" fill="#ffffff" stroke="none" stroke-width="0" stroke-linecap="butt"/><path d="M258.57341,174.61641c0,3.67927 -2.98266,6.66192 -6.66192,6.66192c-3.67927,0 -6.66193,-2.98265 -6.66193,-6.66192c0,-3.67927 2.98265,-6.66193 6.66193,-6.66193c3.67927,0 6.66192,2.98266 6.66192,6.66193z" data-paper-data="{&quot;index&quot;:null}" fill="#000000" stroke="#000000" stroke-width="NaN" stroke-linecap="butt"/><path d="M254.20871,177.48793c0,1.96651 -1.59417,3.56068 -3.56069,3.56068c-1.96652,0 -3.56069,-1.59418 -3.56069,-3.56068c0,-1.96651 1.59419,-3.56069 3.56069,-3.56069c1.96651,0 3.56069,1.59417 3.56069,3.56069z" data-paper-data="{&quot;index&quot;:null}" fill="#ffffff" stroke="none" stroke-width="0" stroke-linecap="butt"/><path d="M243.04824,176.42672c1.11961,0 1.11961,1.1196 1.11961,1.1196v0.29856c-0.07611,3.30952 -4.05405,5.7636 -7.07035,3.39015c-0.05291,-0.04162 -1.45102,-2.8521 -1.46973,-2.88946c0,0 -0.50071,-1.00141 0.5007,-1.50211c1.00141,-0.5007 1.50211,0.5007 1.50211,0.5007c0.35328,0.7071 0.33752,1.65042 0.91877,2.1861c1.41267,1.30193 3.43197,-0.20174 3.37929,-1.68538v-0.29856c0,0 0,-1.1196 1.11961,-1.1196z" fill="#000000" stroke="none" stroke-width="0.5" stroke-linecap="butt"/></g></g></svg>