<svg version="1.1" xmlns="http://www.w3.org/2000/svg" xmlns:xlink="http://www.w3.org/1999/xlink" width="66.05882" height="65.88334" viewBox="0,0,66.05882,65.88334"><g transform="translate(-179.02331,-162.3)"><g data-paper-data="{&quot;isPaintingLayer&quot;:true}" fill-rule="nonzero" stroke="#000000" stroke-linecap="butt" stroke-linejoin="miter" stroke-miterlimit="10" stroke-dasharray="" stroke-dashoffset="0" style="mix-blend-mode: normal"><path d="M181.1,193.7c0,-16.78946 13.61055,-30.4 30.4,-30.4c16.78946,0 30.4,13.61054 30.4,30.4c0,8.59719 5.23126,22.56086 -0.50564,28.09041c-5.46669,5.26911 -22.03543,5.39293 -30.2277,5.39293c-7.39455,0 -21.90581,0.72653 -27.17588,-3.66253c-6.69572,-5.57638 -2.89078,-20.4259 -2.89078,-29.8208z" fill="#66c6ff" stroke-width="2"/><path d="M189.41667,191c0,-3.92122 3.17878,-7.1 7.1,-7.1c3.92122,0 7.1,3.17878 7.1,7.1c0,3.92122 -3.17878,7.1 -7.1,7.1c-3.92122,0 -7.1,-3.17878 -7.1,-7.1z" fill="#000000" stroke-width="2"/><path d="M195.41667,189.5c0,-2.03425 1.64908,-3.68333 3.68333,-3.68333c2.03425,0 3.68333,1.64909 3.68333,3.68333c0,2.03425 -1.64908,3.68333 -3.68333,3.68333c-2.03425,0 -3.68333,-1.64909 -3.68333,-3.68333z" fill="#ffffff" stroke-width="0"/><path d="M191.5,194.58334c0,-1.25185 1.01483,-2.26667 2.26667,-2.26667c1.25185,0 2.26666,1.01483 2.26666,2.26667c0,1.25185 -1.01482,2.26666 -2.26666,2.26666c-1.25185,0 -2.26667,-1.01482 -2.26667,-2.26666z" fill="#ffffff" stroke-width="0"/><path d="M221.43333,198.01667c-3.92122,0 -7.1,-3.17878 -7.1,-7.1c0,-3.92122 3.17878,-7.1 7.1,-7.1c3.92122,0 7.1,3.17878 7.1,7.1c0,3.92122 -3.17878,7.1 -7.1,7.1z" data-paper-data="{&quot;index&quot;:null}" fill="#000000" stroke-width="2"/><path d="M218.85,193.1c-2.03425,0 -3.68333,-1.64908 -3.68333,-3.68333c0,-2.03425 1.64908,-3.68333 3.68333,-3.68333c2.03425,0 3.68333,1.64908 3.68333,3.68333c0,2.03425 -1.64908,3.68333 -3.68333,3.68333z" data-paper-data="{&quot;index&quot;:null}" fill="#ffffff" stroke-width="0"/><path d="M224.18333,196.76667c-1.25185,0 -2.26666,-1.01482 -2.26666,-2.26666c0,-1.25185 1.01482,-2.26667 2.26666,-2.26667c1.25185,0 2.26667,1.01483 2.26667,2.26667c0,1.25185 -1.01483,2.26666 -2.26667,2.26666z" data-paper-data="{&quot;index&quot;:null}" fill="#ffffff" stroke-width="0"/></g></g></svg>