<svg version="1.1" xmlns="http://www.w3.org/2000/svg" xmlns:xlink="http://www.w3.org/1999/xlink" width="611" height="404" viewBox="0,0,611,404"><g transform="translate(70.5,23.5)"><g data-paper-data="{&quot;isPaintingLayer&quot;:true}" fill-rule="nonzero" stroke="none" stroke-linecap="butt" stroke-linejoin="miter" stroke-miterlimit="10" stroke-dasharray="" stroke-dashoffset="0" style="mix-blend-mode: normal"><path d="M177.90476,261.7381c6.18241,-7.10515 13.72551,-15.64093 24.17857,-10.9256c2.01305,0.90808 4.1339,4.99163 4.9365,6.64088c0.43935,0.90283 0.1021,3.15701 0.68355,3.69346c0.56262,0.51908 4.12293,-0.19377 4.99491,0c2.10661,0.46814 5.57009,2.70738 6.60623,4.65015c2.68478,5.03396 -0.69168,10.65167 5.58469,12.78256c1.68528,0.57217 8.95052,-7.8027 9.51951,-8.3375c4.85368,-4.56208 11.22738,-7.65406 16.09533,-11.92146c4.4788,-3.92625 7.68707,-8.36976 14.2496,-8.88601c2.25029,-0.17702 5.69274,2.12618 7.32764,3.63079c6.91379,6.3628 12.35498,13.22536 19.84334,18.84334c1.94102,1.45621 3.56318,5.24234 5.92462,5.92462c1.05737,0.3055 1.79877,-1.43524 2.2511,-1.8886c1.99832,-2.00285 4.20764,-4.12986 6.50703,-5.81052c8.41383,-6.14982 15.6889,-14.2828 24.64263,-19.65504c3.74192,-2.24515 12.10639,-1.57931 14.8026,2.465c0.2441,0.36615 0.34108,0.78989 0.38943,1.23414c-0.32214,0.55149 -0.59298,1.02522 -0.78747,1.37129c-1.98566,3.53325 -4.45904,7.22605 -6.23789,10.78374c-2.04946,4.09891 -2.68769,9.14388 -5.29021,13.16473c-2.25918,3.4904 -6.2122,5.99122 -9.13437,8.90937c-1.91559,1.91296 -3.57208,4.07601 -5.45741,6.03699c-1.28647,1.12267 -2.5845,2.22965 -3.89537,3.31859c-5.73564,3.89232 -12.20224,6.25969 -17.85019,10.49677c-3.44719,2.58607 -11.42145,6.6296 -16.35927,6.74022c-3.97975,0.08916 -12.49415,-0.71137 -15.719,3.46332c-7.0591,0.50839 -14.15211,0.59066 -20.80759,0.70334c-11.15754,0.18891 -23.2977,2.35657 -33.98658,-1.64583c-1.71623,-0.64263 -3.92152,-3.08115 -4.47482,-5.15842c-0.31016,-1.16446 0.33076,-3.07198 -0.78424,-3.52908c-2.41318,-0.98929 -5.22923,0.26051 -7.82428,0c-1.79484,-0.18018 -3.68381,-0.41754 -5.25,-1.3125c-0.83523,-0.47727 -0.7516,-1.82546 -1.43182,-2.50568c-0.68022,-0.68022 -1.96154,-0.63853 -2.50568,-1.43182c-0.67925,-0.99027 -0.3776,-2.4014 -0.87374,-3.49495c-0.16744,-0.36907 -5.09576,1.14588 -6.01401,0.62117c-1.45135,-0.82934 -6.98496,-4.79419 -7.38314,-6.20975c-0.01254,-0.04458 -0.09026,0.02075 -0.13561,0.03014c-0.49784,0.10302 -0.95703,0.20634 -1.40847,0.31299c-0.73971,0.27548 -1.51885,0.46997 -2.32664,0.57267c-0.43801,0.05569 -0.88444,0.08439 -1.33757,0.08439c-5.79899,0 -10.5,-4.70101 -10.5,-10.5c0,-4.42599 2.73847,-8.21238 6.61348,-9.75724c3.53217,-4.23204 7.02061,-7.06424 12.62462,-13.50467z" fill="#4affae" stroke-width="0.5"/><path d="M-70.5,380.5v-404h611v404z" fill="#4affae" stroke-width="0"/><path d="M-51.5,49.5v-56h561v56z" fill="#c8ffbd" stroke-width="0"/><path d="M-44.5,149.5v-56h561v56z" fill="#c8ffbd" stroke-width="0"/><path d="M-45.5,259.5v-56h561v56z" fill="#c8ffbd" stroke-width="0"/><path d="M-48.5,357.5v-56h561v56z" fill="#c8ffbd" stroke-width="0"/></g></g></svg>