<svg version="1.1" xmlns="http://www.w3.org/2000/svg" xmlns:xlink="http://www.w3.org/1999/xlink" width="39.83604" height="53.34929" viewBox="0,0,39.83604,53.34929"><g transform="translate(-219.35311,-151.57181)"><g data-paper-data="{&quot;isPaintingLayer&quot;:true}" fill-rule="nonzero" stroke-linecap="butt" stroke-linejoin="miter" stroke-miterlimit="10" stroke-dasharray="" stroke-dashoffset="0" style="mix-blend-mode: normal"><path d="M240.75026,151.57181c1.76129,1.31599 2.74845,2.99898 3.25522,4.90355c0.17642,0.66302 0.29461,1.35289 0.36698,2.06347c2.11711,-0.07867 4.25263,0.02363 4.71973,0.84105l1.7392,3.04359c-1.12618,1.97082 -2.64664,2.94979 -4.39956,3.42416c-0.76615,0.20733 -1.57671,0.31826 -2.41817,0.37348c-0.27786,2.26219 -0.58867,4.5241 -0.63075,6.63632c-0.04158,2.08728 -0.02669,4.22886 0.00508,6.37551c7.751,1.9148 16.1365,4.47169 15.79083,10.54441c-0.40136,7.05086 -7.56206,10.68198 -14.7398,11.71387c-0.44074,3.4241 -2.03913,5.10537 -6.26522,1.09623c-0.20242,-0.19202 -0.36931,-0.49835 -0.50702,-0.8856c-1.31817,-0.1162 -2.54627,-0.32902 -3.62747,-0.63155c-1.52227,-0.42594 -6.01057,0.66436 -7.38335,-0.75432c-7.36588,-7.61208 5.62416,-6.35067 10.34598,-5.84022c-0.00417,-0.52768 -0.00826,-0.94452 -0.02427,-1.18732c-0.18353,-2.78328 -0.31204,-5.57869 -0.3945,-8.38069c-1.45221,-0.36202 -2.8978,-0.75267 -4.29892,-1.19682c-0.26913,-0.15904 -0.55212,-0.32354 -0.84558,-0.48891c-0.21135,-0.16306 -0.4406,-0.30408 -0.68428,-0.41959l-0.92733,-0.46367c-0.04353,-0.00967 -0.08799,-0.0193 -0.13332,-0.02887c-1.14507,-0.54403 -2.34264,-0.98964 -3.43935,-1.12899c-3.78419,-2.15553 -6.499,-5.26653 -6.87597,-10.16718c-0.61235,-7.9606 10.02821,-11.15645 17.21466,-11.98111c0.07274,-2.94336 0.43676,-6.06808 1.64028,-6.40657zM236.59961,166.82597c0.00496,-0.18854 0.01261,-0.37699 0.0216,-0.5654c-1.02752,0.06522 -2.04686,0.20276 -3.03849,0.47139c-0.88078,0.23859 -7.5607,1.93006 -7.10721,4.11242c0.56881,2.73732 4.22907,4.39228 6.46269,5.432c0.94642,0.44054 2.1535,0.83981 3.5281,1.22636c-0.01069,-3.55984 0.03985,-7.1225 0.13332,-10.67675zM244.30275,194.32906c2.33893,-0.58609 5.77142,-1.48363 6.96454,-3.38535c0.282,-0.44949 1.21572,-1.12213 0.76217,-1.39755c-2.1559,-1.30918 -5.17955,-2.1914 -8.52558,-3.0053c0.00375,0.42244 0.00634,0.84279 0.00745,1.26067v0.00001c0.00186,0.69477 0.47614,3.43586 0.79142,6.52752z" fill="#00b357" stroke="none" stroke-width="0.5"/><path d="M245.20485,180.12258c-2.06404,0.60135 -4.3638,0.93695 -6.78818,0.93695c-8.92861,0 -16.16666,-4.55178 -16.16666,-10.16667c0,-5.61489 7.23806,-10.16666 16.16666,-10.16666c4.32731,0 8.25753,1.06918 11.15911,2.81038" fill="none" stroke="#00b357" stroke-width="3.5"/><path d="M229.8939,181.17032c2.8269,-1.52367 6.50013,-2.44413 10.51522,-2.44413c8.92861,0 16.16667,4.55177 16.16667,10.16666c0,5.61489 -7.23806,10.16667 -16.16667,10.16667c-2.42439,0 -4.72414,-0.3356 -6.78818,-0.93695" data-paper-data="{&quot;index&quot;:null}" fill="none" stroke="#00b357" stroke-width="3.5"/></g></g></svg>