<svg version="1.1" xmlns="http://www.w3.org/2000/svg" xmlns:xlink="http://www.w3.org/1999/xlink" width="229" height="285.01853" viewBox="0,0,229,285.01853"><g transform="translate(-125.5,-37.49074)"><g data-paper-data="{&quot;isPaintingLayer&quot;:true}" fill-rule="nonzero" stroke-linejoin="miter" stroke-miterlimit="10" stroke-dasharray="" stroke-dashoffset="0" style="mix-blend-mode: normal"><path d="M130,210.55556c0,-61.59509 46.87713,-168.56481 108.47222,-168.56481c61.59509,0 111.52778,112.06232 111.52778,173.65741c0,61.59509 -49.93269,102.36111 -111.52778,102.36111c-61.59509,0 -108.47222,-45.85861 -108.47222,-107.4537z" fill="#c7bdff" stroke="#000000" stroke-width="9" stroke-linecap="butt"/><path d="M219.25392,41.77035l3.4064,-0.68128l1.36954,0.06522l1.34697,-0.25611l11.92238,0.68128l1.15593,0.36019l1.20996,0.04388l8.05767,2.32777l0.51689,-0.01782l1.46953,0.314h1.5027l4.08767,1.02192l1.04267,0.55609l1.15355,0.25634l0.6805,0.34025l0.29849,0.09949l0.36481,0.23215l0.01877,0.00939l0.01159,0.00993l1.06004,0.67457l1.58971,0.66935l1.36256,1.02192l0.41513,0.51093l0.89557,0.17911l5.97816,0.62928l1.28515,0.4689l1.35917,0.15534l2.53912,0.95217l5.30931,1.76977l1.04814,0.20963l1.29524,0.61353l0.76235,0.16941l0.04587,-0.01251l0.0601,0.03606l0.53075,0.11794l0.43147,0.21573c1.89073,1.91078 3.765,3.78135 5.94965,5.56973c0.27842,0.22792 0.54638,0.46998 0.80562,0.72358l0.03829,0.07659l0.31072,0.46608l0.1452,0.40657l0.31566,0.18037l0.58621,2.34486l0.81294,2.27622l-0.08004,0.16007l0.04242,0.04066v3.62059l0.04659,0.06988l-0.04659,0.20966v1.95536l-0.0435,0.04169l3.71821,3.14618l1.05329,1.46433l1.26434,1.28652l3.40639,5.79087l0.15066,0.51093l0.68269,0.27024l0.19131,1.21961l1.02719,0.68479l-0.21215,3.81865l0.2152,1.50637l-0.03478,0.33621l0.489,3.11737l-0.66694,0.87537l-0.02007,0.12042v0.13386l-0.06693,0.26773l-0.07907,0.47437l-0.09302,0.21393l-1.10226,4.40903l-0.36788,0.21021l-0.0235,0.42305l-1.92217,1.64757l-0.16926,0.2821l-1.7032,1.7032l-1.22896,0.73738l-1.03475,0.99164l-4.76895,2.72511l-0.6937,0.1951l-0.58149,0.42563l-2.67996,1.09184l-0.31686,0.27159l-0.68128,0.34064l-0.44447,0.09877l-0.36912,0.26659l-1.2888,0.51552l-0.96336,0.48168l-1.15355,0.25635l-1.04267,0.55609l-0.10447,0.02612l-0.293,0.19533l-1.48011,0.52861l-1.62664,0.97598l-0.62718,-0.17105l-1.47408,0.52646l-1.52703,-0.76352l-0.0301,0.0041l-0.06511,-0.0517l-2.46306,-1.23153l-4.24606,-1.15802l-0.30474,-1.11739l-1.03592,-0.51796l-0.17274,-2.50476l-0.18065,-0.14346l0.11428,-0.81897l-0.06369,-0.92353l-0.74381,-2.72731l-0.95476,-0.47738l-0.29849,-0.09949l-0.36481,-0.23215l-0.01877,-0.00938l-0.01159,-0.00993l-0.45238,-0.28788l-0.9703,-0.26032l-2.05048,-1.13916l-5.70033,-1.7101l-0.19763,-0.11751l-0.22903,-0.02026l-3.74513,-1.29639l-0.23978,0.3768l-1.26849,2.11414l-0.21141,0.21141l-0.16546,0.26l-0.07036,0.01407l-0.42083,0.38257l-0.15385,0.15386l-0.04526,0.02715l-1.11968,1.0179l-1.78006,1.70589l-0.25959,0.14834l-0.22804,0.20731l-0.12024,-0.00829l-1.77661,1.0152l-0.29349,0.08255l-0.23148,0.19841l-1.36256,0.68128l-1.39907,0.31091l-1.29524,0.61353l-3.4064,0.68128l-1.06753,-0.05084l-1.03683,0.25921h-1.68436l-0.10028,0.06685l-0.30085,-0.06685h-0.29899l-2.39188,-0.59797l-0.70643,-0.15699l-0.42822,0.11679l-0.56104,-0.33663l-0.71109,-0.15802l-0.26742,-0.13371l-0.29899,-0.07474l-0.0598,-0.10464l-0.05508,-0.02754l-1.30962,-1.12253l-1.47907,-0.88744l-1.19224,-1.19224l-0.18979,-0.11387l-0.19382,-0.08161l-0.22722,-0.17041l-0.38553,-0.15421l-0.36912,-0.26658l-0.44447,-0.09877l-0.28208,-0.14104l-0.12817,-0.05127l-0.02082,0.00568l-0.07001,-0.04201l-1.06981,-0.42792l-1.7506,-1.26432l-1.85169,-1.11101l-0.27062,-0.27062l-1.15979,-0.77319l-0.64457,-0.70902l-0.77481,-0.1937l-0.05381,-0.0287l-0.18901,0.05155l-2.28525,-1.37115l-2.35151,-1.25414l-0.05304,-0.18859l-0.0523,-0.03138l-1.36255,-1.36256l-0.42632,-0.71054l-0.88262,2.64786l-0.41464,0.65158l-0.16754,0.75393l-1.02192,2.04384l-0.63473,0.74052l-0.37848,0.89889l-1.02192,1.36256l-1.41002,1.14564l-1.22209,1.34429l-2.04384,1.36256l-1.3497,0.48204l-0.81397,0.51798l-0.01159,0.00993l-0.01876,0.00938l-0.04076,0.02594l-0.05535,0.09687l-0.15954,0.03989l-0.10917,0.06946l-1.02192,0.34064l-0.55471,0.04267l-1.12786,0.25064l-2.39188,0.59797h-0.29898l-0.30085,0.06685l-0.10029,-0.06685h-5.43139l-1.03682,-0.25921l-1.06753,0.05084l-1.7032,-0.34064l-3.12808,-1.48172l-0.7659,-0.04255l-0.46212,-0.53915l-0.64174,-0.30398l-0.24257,-0.72771l-2.25256,-2.62799l-0.68128,-1.36256l-0.21793,-0.98069l-0.50203,-0.87018l-0.51803,-1.81312l-0.12457,-0.08304l0.01642,-0.29548l-0.0551,-0.19283l-0.04986,-1.49583l-0.363,-1.45197v-1.12837l-0.68128,-1.57546l1.69795,-4.03264l0.03469,-0.62442l0.35711,-0.30609l0.05628,-0.13366l0.34208,-0.45611l0.00045,-0.04712l0.11832,-0.11124l0.56106,-0.74809l1.72779,-1.40382l1.62193,-1.5249l0.81629,-0.45616l0.12604,-0.10241l0.04676,0.00585l0.63902,-0.35709l-0.18458,-0.20629l0.14393,-1.87112l-0.84081,-0.56054l0.08124,-1.46242l-1.08757,-1.21552l0.01975,-0.25673c7.60129,-6.86448 13.94774,-15.24837 22.07539,-21.37718c0.86858,-0.44409 1.66366,-1.01147 2.36216,-1.67905c0.59918,-0.39984 1.20865,-0.78668 1.82949,-1.15918l0.03036,-0.03036c0.54637,-0.34769 1.09326,-0.9514 1.60356,-1.71289l1.34497,-0.31646l0.53869,0.00749l0.5008,-0.19859l0.60076,-0.0801l0.25266,-1.26332l0.93377,-0.59422l0.16694,-0.47299l1.91441,-0.86605l0.11356,-0.12491l1.02192,-0.68128l0.35155,-0.12555l0.16346,-0.10402l0.20505,-0.06835l0.43329,-0.37139l0.34582,-0.17291l0.81554,-0.65243l1.03771,-0.47562l0.86669,-0.74288l1.09617,-0.54809l2.12589,-1.2148l1.66045,-0.467z" fill="#ffea16" stroke="none" stroke-width="0.5" stroke-linecap="butt"/><path d="M177.90476,261.7381c6.18241,-7.10515 13.72551,-15.64093 24.17857,-10.9256c2.01305,0.90808 4.1339,4.99163 4.9365,6.64088c0.43935,0.90283 0.1021,3.15701 0.68355,3.69346c0.56262,0.51908 4.12293,-0.19377 4.99491,0c2.10661,0.46814 5.57009,2.70738 6.60623,4.65015c2.68478,5.03396 -0.69168,10.65167 5.58469,12.78256c1.68528,0.57217 8.95052,-7.8027 9.51951,-8.3375c4.85368,-4.56208 11.22738,-7.65406 16.09533,-11.92146c4.4788,-3.92625 7.68707,-8.36976 14.2496,-8.88601c2.25029,-0.17702 5.69274,2.12618 7.32764,3.63079c6.91379,6.3628 12.35498,13.22536 19.84334,18.84334c1.94102,1.45621 3.56318,5.24234 5.92462,5.92462c1.05737,0.3055 1.79877,-1.43524 2.2511,-1.8886c1.99832,-2.00285 4.20764,-4.12986 6.50703,-5.81052c8.41383,-6.14982 15.6889,-14.2828 24.64263,-19.65504c3.74192,-2.24515 12.10639,-1.57931 14.8026,2.465c0.2441,0.36615 0.34108,0.78989 0.38943,1.23414c-0.32214,0.55149 -0.59298,1.02522 -0.78747,1.37129c-1.98566,3.53325 -4.45904,7.22605 -6.23789,10.78374c-2.04946,4.09891 -2.68769,9.14388 -5.29021,13.16473c-2.25918,3.4904 -6.2122,5.99122 -9.13437,8.90937c-1.91559,1.91296 -3.57208,4.07601 -5.45741,6.03699c-1.28647,1.12267 -2.5845,2.22965 -3.89537,3.31859c-5.73564,3.89232 -12.20224,6.25969 -17.85019,10.49677c-3.44719,2.58607 -11.42145,6.6296 -16.35927,6.74022c-3.97975,0.08916 -12.49415,-0.71137 -15.719,3.46332c-7.0591,0.50839 -14.15211,0.59066 -20.80759,0.70334c-11.15754,0.18891 -23.2977,2.35657 -33.98658,-1.64583c-1.71623,-0.64263 -3.92152,-3.08115 -4.47482,-5.15842c-0.31016,-1.16446 0.33076,-3.07198 -0.78424,-3.52908c-2.41318,-0.98929 -5.22923,0.26051 -7.82428,0c-1.79484,-0.18018 -3.68381,-0.41754 -5.25,-1.3125c-0.83523,-0.47727 -0.7516,-1.82546 -1.43182,-2.50568c-0.68022,-0.68022 -1.96154,-0.63853 -2.50568,-1.43182c-0.67925,-0.99027 -0.3776,-2.4014 -0.87374,-3.49495c-0.16744,-0.36907 -5.09576,1.14588 -6.01401,0.62117c-1.45135,-0.82934 -6.98496,-4.79419 -7.38314,-6.20975c-0.01254,-0.04458 -0.09026,0.02075 -0.13561,0.03014c-0.49784,0.10302 -0.95703,0.20634 -1.40847,0.31299c-0.73971,0.27548 -1.51885,0.46997 -2.32664,0.57267c-0.43801,0.05569 -0.88444,0.08439 -1.33757,0.08439c-5.79899,0 -10.5,-4.70101 -10.5,-10.5c0,-4.42599 2.73847,-8.21238 6.61348,-9.75724c3.53217,-4.23204 7.02061,-7.06424 12.62462,-13.50467z" fill="#8800ff" stroke="none" stroke-width="0.5" stroke-linecap="butt"/><path d="M183.85759,114.59805c1.90941,0.35276 3.74813,-2.03622 5.30907,-2.26472c1.96793,-0.28808 3.74314,1.51023 5.11759,2.54746c0.24596,0.18561 1.12199,-2.99359 1.15759,-3.07653c0.58791,-1.36988 1.29174,-2.68829 2,-4c0.66636,-1.23413 1.1461,-3.17658 1.87065,-4.22092c0.58214,-0.83908 5.56521,-4.37141 6.64088,-4.9365c0.41045,-0.21562 0.8788,0.43323 1.33897,0.37658c0.46017,-0.05665 0.75228,-0.77722 1.20766,-0.69009c2.62461,0.50219 8.02114,3.06308 9.1875,5.25c0.96661,1.8124 0.52766,4.94978 1.33233,6.41667c0.2373,0.43258 0.99182,-0.07031 1.48017,0c1.68255,0.24223 3.76379,0.42077 5.25,1.3125c2.02058,1.21235 3.44231,3.33639 4.90705,5.20581c0.13976,0.17838 0.36683,0.37513 0.59025,0.33729c0.49734,-0.08424 1.32399,-1.01672 1.74968,-1.29801c2.34789,-1.55151 4.8121,-2.99685 6.84251,-4.9455c4.71042,-4.52075 6.58073,-13.24043 14.91415,-12.34417c0.93675,0.10075 1.48873,1.18993 2.35177,1.56784c0.96528,0.42269 2.68152,-0.03966 3.64185,0.71092c0.36757,0.28729 2.59186,3.17637 3.16843,4.38705c0.79864,1.67698 1.13322,3.74047 1.41766,5.56627c0.05986,0.38425 -0.37803,1.07542 0,1.16667c3.26081,0.78709 7.05065,-1.27201 10.08333,1.3125c3.30362,2.8154 2.20349,5.23482 4.78977,7.3321c0.72038,0.58418 1.33088,-1.29232 2.00889,-1.92519c1.18334,-1.10455 2.515,-2.0543 3.89535,-2.89986c3.78337,-2.31757 10.61395,-5.19517 13.47515,-8.32954c0.36446,-0.39926 0.01062,-1.19156 0.39334,-1.57335c0.75325,-0.75142 1.85327,-1.04587 2.77134,-1.58362c0.88663,-0.51934 0.8425,-2.02393 1.72042,-2.55786c0.63318,-0.38509 1.47974,0.16159 2.21984,0.12332c0.62768,-0.03245 2.10801,-1.26777 2.4759,-1.23184c1.01428,0.09906 1.67542,1.23405 2.65451,1.51686c1.03122,0.29787 2.23581,-0.26069 3.21517,0.17862c3.31188,1.4856 4.70724,7.27701 6.18847,10.10877c3.10826,5.94224 6.05612,11.55251 8.81674,17.52548c2.07532,4.49024 5.87822,9.11218 6.75295,14.1832c0.50201,2.91028 0.2014,5.83106 0.55865,8.73304c0.55007,4.46828 1.97462,10.70335 0.26738,14.89384c-1.66257,4.08084 -3.19777,6.51369 -6.52889,9.28458c-1.45438,1.20977 -7.6682,6.64163 -10.34165,7.59643c-1.57016,0.56077 -3.67747,1.26013 -5.25,1.3125c-13.88419,0.4624 -11.42305,-8.41802 -18.1394,-15.72562c-2.72121,-2.96076 -7.21906,-3.98275 -10.77726,-5.25354c-2.34831,-0.83868 -4.16302,-4.18156 -6.53745,-4.9709c-0.09359,-0.03111 -1.56494,1.97301 -1.78793,2.20802c-1.43399,1.5113 -2.97893,2.91438 -4.41945,4.41945c-5.0464,5.27253 -12.71118,19.82067 -20.22093,21.69811c-5.85081,1.4627 -10.46623,-1.72236 -14.48074,-5.72279c-5.59272,-5.57309 -11.73709,-10.47356 -17.03682,-16.5194c-2.04549,-2.33345 -3.05818,-6.07548 -5.51314,-8.03057c-0.30948,-0.24646 -0.3254,0.73067 -0.57239,1.03972c-0.8353,1.04518 -1.77578,2.00178 -2.66667,3c-0.97256,1.08973 -2.0465,2.26782 -3.02153,3.35755c-5.2236,5.83813 -10.30169,12.43567 -16.35314,17.36636c-2.82917,2.30519 -2.62193,6.72298 -6.60345,8.77145c-1.61006,0.82836 -3.33376,1.65168 -5.14163,1.75212c-0.98223,0.05457 -1.67786,-1.11321 -2.63965,-1.31983c-0.90874,-0.19522 -1.95279,0.57035 -2.78413,0.15467c-0.83135,-0.41567 -0.84993,-1.70498 -1.54674,-2.32011c-0.69681,-0.61513 -1.97846,-0.47365 -2.49404,-1.24702c-0.51558,-0.77337 0.11458,-1.90431 -0.19185,-2.78182c-0.32432,-0.92874 -1.56936,-1.47416 -1.63704,-2.45557c-0.11971,-1.73574 2.85565,-5.06858 1.11605,-5.09888c-4.02454,-0.0701 -2.14351,-2.97784 -4.74796,-3.14847c-1.0071,-0.06598 -4.24404,1.5842 -5.136,1.49372c-1.08631,-0.11021 -1.80427,-1.29196 -2.84407,-1.62518c-1.0398,-0.33322 -2.31091,0.21111 -3.25893,-0.33062c-0.66216,-0.37838 -0.43542,-1.52161 -0.95668,-2.0783c-0.55835,-0.59631 -1.7441,-0.49472 -2.12782,-1.2159c-0.86564,-1.62692 0.12409,-4.21628 -1.3125,-5.37057c-0.82505,-0.66292 -4.14424,-0.89173 -5.19574,-1.15461c-1.9847,-0.49617 -3.29415,-2.44411 -4.77544,-3.85514c-2.04898,-1.95179 -1.65133,-7.09807 -1.69548,-9.85125c-0.14004,-8.73284 5.79173,-20.77946 10.05203,-28.23571c3.03359,-5.3093 6.68492,-10.06879 9.93059,-15.28737c0.04798,-0.07715 0.09728,-0.15721 0.14786,-0.23977c0.27434,-0.5407 0.5941,-1.05446 0.95427,-1.53626c1.04651,-1.60687 2.3824,-3.27358 3.84054,-3.17302c1.38278,-0.67037 2.93484,-1.0463 4.5747,-1.0463c5.79899,0 10.5,4.70101 10.5,10.5c0,0.34783 -0.01691,0.69171 -0.04996,1.03086c-0.03186,0.32692 -0.0787,0.64944 -0.13985,0.96687c1.29912,0.44478 2.69711,0.51752 4.0474,0.76699z" fill="#4affa5" stroke="none" stroke-width="0.5" stroke-linecap="butt"/><path d="M338.83333,166.53145l-25.46777,25.46777l-30.09827,-30.09827l-31.48742,31.48742l-31.95047,-31.95047l-34.72877,34.72877l-42.60063,-37.04403" fill="none" stroke="#000000" stroke-width="9" stroke-linecap="round"/><path d="M340.76668,243.54403l-44.03271,38.28931l-35.89623,-35.89623l-33.02453,33.02454l-32.54591,-32.54591l-31.11006,31.11006l-26.32391,-26.3239" data-paper-data="{&quot;index&quot;:null}" fill="none" stroke="#000000" stroke-width="9" stroke-linecap="round"/><path d="M310.83333,93.37421l-30.81132,26.79245l-25.11793,-25.11792l-23.10849,23.10849l-22.77359,-22.77358l-21.76886,21.76887l-18.41982,-18.41981" data-paper-data="{&quot;index&quot;:null}" fill="none" stroke="#000000" stroke-width="9" stroke-linecap="round"/><path d="M130,210.55555c0,-61.59509 46.87713,-168.56481 108.47222,-168.56481c61.59509,0 111.52778,112.06232 111.52778,173.65741c0,61.59509 -49.93269,102.36111 -111.52778,102.36111c-61.59509,0 -108.47222,-45.85861 -108.47222,-107.45371z" fill="none" stroke="#000000" stroke-width="9" stroke-linecap="butt"/></g></g></svg>